<svg width="1323" height="659" viewBox="0 0 1323 659" fill="none" xmlns="http://www.w3.org/2000/svg">
<g filter="url(#filter0_d_251_19082)">
<rect x="6" y="4" width="1311" height="647" rx="20" fill="white"/>
</g>
<path d="M54.798 581.094C54.0606 581.094 53.4166 580.893 52.866 580.492C52.3153 580.081 51.928 579.507 51.704 578.77L52.824 578.308C53.16 579.409 53.818 579.96 54.798 579.96C55.3486 579.96 55.7873 579.768 56.114 579.386C56.45 579.003 56.618 578.499 56.618 577.874V570.846H57.808V577.776C57.808 578.476 57.6773 579.078 57.416 579.582C57.164 580.076 56.8093 580.454 56.352 580.716C55.904 580.968 55.386 581.094 54.798 581.094ZM63.4851 570.846H64.8291L68.6371 580.87H67.3351L66.3271 578.112H61.9871L60.9791 580.87H59.6771L63.4851 570.846ZM65.9211 576.992L64.5771 573.38L64.1851 572.302H64.1291L63.7371 573.38L62.3931 576.992H65.9211ZM70.806 570.846H72.262L77.288 578.826H77.344L77.288 576.894V570.846H78.478V580.87H77.246L71.996 572.512H71.94L71.996 574.444V580.87H70.806V570.846Z" fill="#615E83"/>
<path d="M153.252 570.846H159.048V571.98H154.442V575.41H158.6V576.53H154.442V580.87H153.252V570.846ZM161.53 570.846H167.326V571.98H162.72V575.298H166.878V576.418H162.72V579.736H167.326V580.87H161.53V570.846ZM170.08 570.846H173.678C174.182 570.846 174.654 570.962 175.092 571.196C175.54 571.429 175.895 571.751 176.156 572.162C176.418 572.572 176.548 573.034 176.548 573.548C176.548 574.033 176.422 574.458 176.17 574.822C175.928 575.186 175.596 575.466 175.176 575.662V575.718C175.68 575.886 176.091 576.175 176.408 576.586C176.726 576.996 176.884 577.477 176.884 578.028C176.884 578.569 176.744 579.059 176.464 579.498C176.194 579.927 175.825 580.263 175.358 580.506C174.901 580.748 174.406 580.87 173.874 580.87H170.08V570.846ZM173.678 575.172C174.014 575.172 174.308 575.097 174.56 574.948C174.822 574.789 175.022 574.588 175.162 574.346C175.302 574.094 175.372 573.837 175.372 573.576C175.372 573.324 175.302 573.076 175.162 572.834C175.032 572.582 174.84 572.376 174.588 572.218C174.346 572.059 174.061 571.98 173.734 571.98H171.27V575.172H173.678ZM173.944 579.736C174.28 579.736 174.579 579.652 174.84 579.484C175.111 579.316 175.316 579.101 175.456 578.84C175.606 578.569 175.68 578.294 175.68 578.014C175.68 577.734 175.606 577.463 175.456 577.202C175.307 576.931 175.097 576.716 174.826 576.558C174.556 576.39 174.243 576.306 173.888 576.306H171.27V579.736H173.944Z" fill="#615E83"/>
<path d="M251.423 570.846H253.145L256.337 579.064H256.393L259.585 570.846H261.307V580.87H260.131V574.5L260.187 572.596H260.131L256.855 580.87H255.875L252.599 572.596H252.543L252.599 574.5V580.87H251.423V570.846ZM267.288 570.846H268.632L272.44 580.87H271.138L270.13 578.112H265.79L264.782 580.87H263.48L267.288 570.846ZM269.724 576.992L268.38 573.38L267.988 572.302H267.932L267.54 573.38L266.196 576.992H269.724ZM274.609 570.846H277.997C278.547 570.846 279.061 570.972 279.537 571.224C280.013 571.476 280.391 571.83 280.671 572.288C280.96 572.736 281.105 573.244 281.105 573.814C281.105 574.28 280.997 574.714 280.783 575.116C280.577 575.517 280.288 575.853 279.915 576.124C279.551 576.394 279.145 576.576 278.697 576.67L278.669 576.712L281.497 580.814V580.87H280.097L277.367 576.782H275.799V580.87H274.609V570.846ZM277.927 575.676C278.272 575.676 278.594 575.596 278.893 575.438C279.201 575.279 279.443 575.06 279.621 574.78C279.807 574.49 279.901 574.168 279.901 573.814C279.901 573.506 279.821 573.212 279.663 572.932C279.504 572.652 279.28 572.423 278.991 572.246C278.711 572.068 278.384 571.98 278.011 571.98H275.799V575.676H277.927Z" fill="#615E83"/>
<path d="M358.185 570.846H359.529L363.337 580.87H362.035L361.027 578.112H356.687L355.679 580.87H354.377L358.185 570.846ZM360.621 576.992L359.277 573.38L358.885 572.302H358.829L358.437 573.38L357.093 576.992H360.621ZM365.506 570.846H368.88C369.44 570.846 369.958 570.972 370.434 571.224C370.91 571.476 371.288 571.83 371.568 572.288C371.857 572.736 372.002 573.244 372.002 573.814C372.002 574.383 371.857 574.896 371.568 575.354C371.288 575.802 370.91 576.152 370.434 576.404C369.958 576.656 369.44 576.782 368.88 576.782H366.696V580.87H365.506V570.846ZM368.908 575.648C369.281 575.648 369.608 575.559 369.888 575.382C370.177 575.204 370.401 574.976 370.56 574.696C370.719 574.416 370.798 574.122 370.798 573.814C370.798 573.506 370.719 573.212 370.56 572.932C370.401 572.652 370.177 572.423 369.888 572.246C369.608 572.068 369.281 571.98 368.908 571.98H366.696V575.648H368.908ZM374.412 570.846H377.8C378.351 570.846 378.864 570.972 379.34 571.224C379.816 571.476 380.194 571.83 380.474 572.288C380.764 572.736 380.908 573.244 380.908 573.814C380.908 574.28 380.801 574.714 380.586 575.116C380.381 575.517 380.092 575.853 379.718 576.124C379.354 576.394 378.948 576.576 378.5 576.67L378.472 576.712L381.3 580.814V580.87H379.9L377.17 576.782H375.602V580.87H374.412V570.846ZM377.73 575.676C378.076 575.676 378.398 575.596 378.696 575.438C379.004 575.279 379.247 575.06 379.424 574.78C379.611 574.49 379.704 574.168 379.704 573.814C379.704 573.506 379.625 573.212 379.466 572.932C379.308 572.652 379.084 572.423 378.794 572.246C378.514 572.068 378.188 571.98 377.814 571.98H375.602V575.676H377.73Z" fill="#615E83"/>
<path d="M454.996 570.846H456.718L459.91 579.064H459.966L463.158 570.846H464.88V580.87H463.704V574.5L463.76 572.596H463.704L460.428 580.87H459.448L456.172 572.596H456.116L456.172 574.5V580.87H454.996V570.846ZM470.861 570.846H472.205L476.013 580.87H474.711L473.703 578.112H469.363L468.355 580.87H467.053L470.861 570.846ZM473.297 576.992L471.953 573.38L471.561 572.302H471.505L471.113 573.38L469.769 576.992H473.297ZM479.47 576.236L476.082 570.846H477.468L480.03 575.046H480.086L482.606 570.846H483.992L480.66 576.236V580.87H479.47V576.236Z" fill="#615E83"/>
<path d="M560.875 581.094C560.138 581.094 559.494 580.893 558.943 580.492C558.392 580.081 558.005 579.507 557.781 578.77L558.901 578.308C559.237 579.409 559.895 579.96 560.875 579.96C561.426 579.96 561.864 579.768 562.191 579.386C562.527 579.003 562.695 578.499 562.695 577.874V570.846H563.885V577.776C563.885 578.476 563.754 579.078 563.493 579.582C563.241 580.076 562.886 580.454 562.429 580.716C561.981 580.968 561.463 581.094 560.875 581.094ZM570.245 581.094C569.526 581.094 568.887 580.93 568.327 580.604C567.767 580.268 567.333 579.806 567.025 579.218C566.717 578.62 566.563 577.934 566.563 577.16V570.846H567.753V577.216C567.753 578.028 567.968 578.69 568.397 579.204C568.826 579.708 569.442 579.96 570.245 579.96C571.048 579.96 571.664 579.708 572.093 579.204C572.532 578.69 572.751 578.028 572.751 577.216V570.846H573.941V577.16C573.941 577.934 573.792 578.62 573.493 579.218C573.204 579.815 572.779 580.277 572.219 580.604C571.659 580.93 571.001 581.094 570.245 581.094ZM576.787 570.846H578.243L583.269 578.826H583.325L583.269 576.894V570.846H584.459V580.87H583.227L577.977 572.512H577.921L577.977 574.444V580.87H576.787V570.846Z" fill="#615E83"/>
<path d="M662.219 581.094C661.482 581.094 660.838 580.893 660.287 580.492C659.736 580.081 659.349 579.507 659.125 578.77L660.245 578.308C660.581 579.409 661.239 579.96 662.219 579.96C662.77 579.96 663.208 579.768 663.535 579.386C663.871 579.003 664.039 578.499 664.039 577.874V570.846H665.229V577.776C665.229 578.476 665.098 579.078 664.837 579.582C664.585 580.076 664.23 580.454 663.773 580.716C663.325 580.968 662.807 581.094 662.219 581.094ZM671.589 581.094C670.87 581.094 670.231 580.93 669.671 580.604C669.111 580.268 668.677 579.806 668.369 579.218C668.061 578.62 667.907 577.934 667.907 577.16V570.846H669.097V577.216C669.097 578.028 669.311 578.69 669.741 579.204C670.17 579.708 670.786 579.96 671.589 579.96C672.391 579.96 673.007 579.708 673.437 579.204C673.875 578.69 674.095 578.028 674.095 577.216V570.846H675.285V577.16C675.285 577.934 675.135 578.62 674.837 579.218C674.547 579.815 674.123 580.277 673.563 580.604C673.003 580.93 672.345 581.094 671.589 581.094ZM678.131 570.846H679.321V579.736H683.703V580.87H678.131V570.846Z" fill="#615E83"/>
<path d="M760.315 570.846H761.659L765.467 580.87H764.165L763.157 578.112H758.817L757.809 580.87H756.507L760.315 570.846ZM762.751 576.992L761.407 573.38L761.015 572.302H760.959L760.567 573.38L759.223 576.992H762.751ZM770.943 581.094C770.224 581.094 769.585 580.93 769.025 580.604C768.465 580.268 768.031 579.806 767.723 579.218C767.415 578.62 767.261 577.934 767.261 577.16V570.846H768.451V577.216C768.451 578.028 768.666 578.69 769.095 579.204C769.524 579.708 770.14 579.96 770.943 579.96C771.746 579.96 772.362 579.708 772.791 579.204C773.23 578.69 773.449 578.028 773.449 577.216V570.846H774.639V577.16C774.639 577.934 774.49 578.62 774.191 579.218C773.902 579.815 773.477 580.277 772.917 580.604C772.357 580.93 771.699 581.094 770.943 581.094ZM782.19 581.094C781.247 581.094 780.379 580.865 779.586 580.408C778.792 579.95 778.162 579.32 777.696 578.518C777.229 577.715 776.996 576.828 776.996 575.858C776.996 574.887 777.229 574 777.696 573.198C778.162 572.395 778.792 571.765 779.586 571.308C780.379 570.85 781.247 570.622 782.19 570.622C782.927 570.622 783.618 570.752 784.262 571.014C784.915 571.275 785.452 571.644 785.872 572.12L785.032 572.974C784.705 572.582 784.294 572.283 783.8 572.078C783.305 571.863 782.773 571.756 782.204 571.756C781.504 571.756 780.846 571.928 780.23 572.274C779.614 572.61 779.119 573.09 778.746 573.716C778.382 574.332 778.2 575.046 778.2 575.858C778.2 576.67 778.382 577.388 778.746 578.014C779.119 578.63 779.614 579.11 780.23 579.456C780.846 579.792 781.504 579.96 782.204 579.96C782.876 579.96 783.436 579.857 783.884 579.652C784.341 579.437 784.733 579.157 785.06 578.812C785.302 578.55 785.498 578.238 785.648 577.874C785.797 577.5 785.89 577.09 785.928 576.642H782.218V575.536H787.034C787.08 575.797 787.104 576.04 787.104 576.264C787.104 576.88 787.006 577.482 786.81 578.07C786.614 578.648 786.301 579.157 785.872 579.596C784.948 580.594 783.72 581.094 782.19 581.094Z" fill="#615E83"/>
<path d="M863.864 581.094C863.36 581.094 862.87 580.991 862.394 580.786C861.927 580.571 861.512 580.263 861.148 579.862C860.784 579.451 860.522 578.956 860.364 578.378L861.498 577.916C861.656 578.513 861.95 579.003 862.38 579.386C862.809 579.768 863.313 579.96 863.892 579.96C864.47 579.96 864.96 579.806 865.362 579.498C865.763 579.18 865.964 578.751 865.964 578.21C865.964 577.743 865.791 577.36 865.446 577.062C865.11 576.754 864.554 576.469 863.78 576.208L863.15 575.984C862.44 575.732 861.862 575.4 861.414 574.99C860.966 574.579 860.742 574.01 860.742 573.282C860.742 572.806 860.872 572.367 861.134 571.966C861.395 571.555 861.759 571.228 862.226 570.986C862.692 570.743 863.215 570.622 863.794 570.622C864.372 570.622 864.876 570.729 865.306 570.944C865.735 571.158 866.076 571.42 866.328 571.728C866.589 572.036 866.771 572.339 866.874 572.638L865.768 573.114C865.665 572.768 865.446 572.456 865.11 572.176C864.783 571.896 864.349 571.756 863.808 571.756C863.294 571.756 862.856 571.9 862.492 572.19C862.128 572.479 861.946 572.843 861.946 573.282C861.946 573.674 862.1 573.996 862.408 574.248C862.716 574.49 863.182 574.719 863.808 574.934L864.466 575.158C865.315 575.466 865.978 575.853 866.454 576.32C866.93 576.777 867.168 577.402 867.168 578.196C867.168 578.84 867 579.381 866.664 579.82C866.337 580.258 865.922 580.58 865.418 580.786C864.914 580.991 864.396 581.094 863.864 581.094ZM869.765 570.846H875.561V571.98H870.955V575.298H875.113V576.418H870.955V579.736H875.561V580.87H869.765V570.846ZM878.316 570.846H881.69C882.25 570.846 882.768 570.972 883.244 571.224C883.72 571.476 884.098 571.83 884.378 572.288C884.667 572.736 884.812 573.244 884.812 573.814C884.812 574.383 884.667 574.896 884.378 575.354C884.098 575.802 883.72 576.152 883.244 576.404C882.768 576.656 882.25 576.782 881.69 576.782H879.506V580.87H878.316V570.846ZM881.718 575.648C882.091 575.648 882.418 575.559 882.698 575.382C882.987 575.204 883.211 574.976 883.37 574.696C883.529 574.416 883.608 574.122 883.608 573.814C883.608 573.506 883.529 573.212 883.37 572.932C883.211 572.652 882.987 572.423 882.698 572.246C882.418 572.068 882.091 571.98 881.718 571.98H879.506V575.648H881.718Z" fill="#615E83"/>
<path d="M963.452 581.094C962.491 581.094 961.618 580.86 960.834 580.394C960.05 579.927 959.434 579.292 958.986 578.49C958.538 577.687 958.314 576.81 958.314 575.858C958.314 574.906 958.538 574.028 958.986 573.226C959.434 572.423 960.05 571.788 960.834 571.322C961.618 570.855 962.491 570.622 963.452 570.622C964.413 570.622 965.286 570.855 966.07 571.322C966.854 571.788 967.47 572.423 967.918 573.226C968.366 574.028 968.59 574.906 968.59 575.858C968.59 576.81 968.366 577.687 967.918 578.49C967.47 579.292 966.854 579.927 966.07 580.394C965.286 580.86 964.413 581.094 963.452 581.094ZM963.452 579.96C964.171 579.96 964.829 579.787 965.426 579.442C966.033 579.087 966.509 578.602 966.854 577.986C967.209 577.36 967.386 576.651 967.386 575.858C967.386 575.064 967.209 574.36 966.854 573.744C966.509 573.118 966.033 572.633 965.426 572.288C964.829 571.933 964.171 571.756 963.452 571.756C962.733 571.756 962.071 571.933 961.464 572.288C960.867 572.633 960.391 573.118 960.036 573.744C959.691 574.36 959.518 575.064 959.518 575.858C959.518 576.651 959.691 577.36 960.036 577.986C960.391 578.602 960.867 579.087 961.464 579.442C962.071 579.787 962.733 579.96 963.452 579.96ZM975.75 581.094C974.78 581.094 973.898 580.865 973.104 580.408C972.311 579.95 971.686 579.325 971.228 578.532C970.78 577.729 970.556 576.838 970.556 575.858C970.556 574.878 970.78 573.991 971.228 573.198C971.686 572.395 972.311 571.765 973.104 571.308C973.898 570.85 974.78 570.622 975.75 570.622C976.497 570.622 977.178 570.762 977.794 571.042C978.42 571.322 978.961 571.728 979.418 572.26L978.564 573.086C978.182 572.628 977.762 572.292 977.304 572.078C976.856 571.863 976.338 571.756 975.75 571.756C975.022 571.756 974.355 571.928 973.748 572.274C973.142 572.61 972.656 573.09 972.292 573.716C971.938 574.332 971.76 575.046 971.76 575.858C971.76 576.67 971.938 577.388 972.292 578.014C972.656 578.63 973.142 579.11 973.748 579.456C974.355 579.792 975.022 579.96 975.75 579.96C976.964 579.96 977.995 579.46 978.844 578.462L979.712 579.302C979.255 579.852 978.681 580.291 977.99 580.618C977.309 580.935 976.562 581.094 975.75 581.094ZM984.321 571.98H981.507V570.846H988.311V571.98H985.511V580.87H984.321V571.98Z" fill="#615E83"/>
<path d="M1061.69 570.846H1063.14L1068.17 578.826H1068.23L1068.17 576.894V570.846H1069.36V580.87H1068.13L1062.88 572.512H1062.82L1062.88 574.444V580.87H1061.69V570.846ZM1076.95 581.094C1075.99 581.094 1075.12 580.86 1074.33 580.394C1073.55 579.927 1072.93 579.292 1072.49 578.49C1072.04 577.687 1071.81 576.81 1071.81 575.858C1071.81 574.906 1072.04 574.028 1072.49 573.226C1072.93 572.423 1073.55 571.788 1074.33 571.322C1075.12 570.855 1075.99 570.622 1076.95 570.622C1077.91 570.622 1078.79 570.855 1079.57 571.322C1080.35 571.788 1080.97 572.423 1081.42 573.226C1081.87 574.028 1082.09 574.906 1082.09 575.858C1082.09 576.81 1081.87 577.687 1081.42 578.49C1080.97 579.292 1080.35 579.927 1079.57 580.394C1078.79 580.86 1077.91 581.094 1076.95 581.094ZM1076.95 579.96C1077.67 579.96 1078.33 579.787 1078.93 579.442C1079.53 579.087 1080.01 578.602 1080.35 577.986C1080.71 577.36 1080.89 576.651 1080.89 575.858C1080.89 575.064 1080.71 574.36 1080.35 573.744C1080.01 573.118 1079.53 572.633 1078.93 572.288C1078.33 571.933 1077.67 571.756 1076.95 571.756C1076.23 571.756 1075.57 571.933 1074.96 572.288C1074.37 572.633 1073.89 573.118 1073.54 573.744C1073.19 574.36 1073.02 575.064 1073.02 575.858C1073.02 576.651 1073.19 577.36 1073.54 577.986C1073.89 578.602 1074.37 579.087 1074.96 579.442C1075.57 579.787 1076.23 579.96 1076.95 579.96ZM1083.33 570.846H1084.65L1087.13 578.112L1087.46 579.106H1087.52L1087.87 578.112L1090.46 570.846H1091.78L1088.11 580.87H1086.89L1083.33 570.846Z" fill="#615E83"/>
<path d="M1169.02 570.894H1172.05C1173.07 570.894 1173.97 571.109 1174.74 571.538C1175.5 571.958 1176.09 572.546 1176.5 573.302C1176.91 574.058 1177.12 574.926 1177.12 575.906C1177.12 576.886 1176.91 577.754 1176.5 578.51C1176.09 579.266 1175.5 579.859 1174.74 580.288C1173.97 580.708 1173.07 580.918 1172.05 580.918H1169.02V570.894ZM1172.05 579.784C1173.23 579.784 1174.17 579.444 1174.86 578.762C1175.56 578.081 1175.91 577.129 1175.91 575.906C1175.91 574.684 1175.56 573.732 1174.86 573.05C1174.17 572.369 1173.23 572.028 1172.05 572.028H1170.21V579.784H1172.05ZM1179.71 570.894H1185.5V572.028H1180.9V575.346H1185.06V576.466H1180.9V579.784H1185.5V580.918H1179.71V570.894ZM1192.69 581.142C1191.72 581.142 1190.84 580.914 1190.04 580.456C1189.25 579.999 1188.62 579.374 1188.17 578.58C1187.72 577.778 1187.49 576.886 1187.49 575.906C1187.49 574.926 1187.72 574.04 1188.17 573.246C1188.62 572.444 1189.25 571.814 1190.04 571.356C1190.84 570.899 1191.72 570.67 1192.69 570.67C1193.44 570.67 1194.12 570.81 1194.73 571.09C1195.36 571.37 1195.9 571.776 1196.36 572.308L1195.5 573.134C1195.12 572.677 1194.7 572.341 1194.24 572.126C1193.79 571.912 1193.28 571.804 1192.69 571.804C1191.96 571.804 1191.29 571.977 1190.69 572.322C1190.08 572.658 1189.59 573.139 1189.23 573.764C1188.88 574.38 1188.7 575.094 1188.7 575.906C1188.7 576.718 1188.88 577.437 1189.23 578.062C1189.59 578.678 1190.08 579.159 1190.69 579.504C1191.29 579.84 1191.96 580.008 1192.69 580.008C1193.9 580.008 1194.93 579.509 1195.78 578.51L1196.65 579.35C1196.19 579.901 1195.62 580.34 1194.93 580.666C1194.25 580.984 1193.5 581.142 1192.69 581.142Z" fill="#615E83"/>
<path d="M1249.05 533.361C1248.19 533.361 1247.42 533.11 1246.75 532.609C1246.09 532.097 1245.57 531.409 1245.21 530.545C1244.86 529.67 1244.68 528.7 1244.68 527.633C1244.68 526.566 1244.86 525.601 1245.21 524.737C1245.57 523.862 1246.09 523.174 1246.75 522.673C1247.41 522.161 1248.18 521.905 1249.05 521.905C1249.93 521.905 1250.69 522.161 1251.36 522.673C1252.02 523.174 1252.53 523.862 1252.89 524.737C1253.25 525.601 1253.44 526.566 1253.44 527.633C1253.44 528.7 1253.25 529.67 1252.89 530.545C1252.53 531.409 1252.01 532.097 1251.34 532.609C1250.68 533.11 1249.92 533.361 1249.05 533.361ZM1249.05 532.065C1249.66 532.065 1250.19 531.873 1250.64 531.489C1251.08 531.094 1251.43 530.561 1251.68 529.889C1251.92 529.217 1252.04 528.465 1252.04 527.633C1252.04 526.801 1251.92 526.049 1251.68 525.377C1251.43 524.705 1251.08 524.177 1250.64 523.793C1250.19 523.398 1249.66 523.201 1249.05 523.201C1248.44 523.201 1247.92 523.398 1247.47 523.793C1247.02 524.177 1246.67 524.705 1246.43 525.377C1246.19 526.049 1246.08 526.801 1246.08 527.633C1246.08 528.465 1246.19 529.217 1246.43 529.889C1246.67 530.561 1247.02 531.094 1247.47 531.489C1247.92 531.873 1248.44 532.065 1249.05 532.065Z" fill="#615E83"/>
<path d="M1252.19 451.778L1250.27 453.154L1249.57 452.114L1252.69 449.874H1253.55V460.818H1252.19V451.778ZM1255.93 449.362H1257.29V456.562L1261.13 452.658H1262.86V452.722L1259.66 455.954L1262.96 460.754V460.818H1261.32L1258.7 456.898L1257.29 458.306V460.818H1255.93V449.362Z" fill="#615E83"/>
<path d="M1249.73 387.171C1251.83 385.069 1253.16 383.699 1253.75 383.059C1254.29 382.472 1254.66 382.013 1254.85 381.683C1255.05 381.352 1255.14 380.952 1255.14 380.483C1255.14 380.173 1255.06 379.875 1254.9 379.587C1254.74 379.299 1254.5 379.069 1254.18 378.899C1253.87 378.717 1253.5 378.627 1253.06 378.627C1252.49 378.627 1252.02 378.797 1251.67 379.139C1251.32 379.469 1251.09 379.832 1250.98 380.227L1249.75 379.731C1249.85 379.389 1250.03 379.037 1250.31 378.675C1250.59 378.301 1250.96 377.987 1251.43 377.731C1251.9 377.464 1252.45 377.331 1253.09 377.331C1253.77 377.331 1254.36 377.475 1254.87 377.763C1255.39 378.051 1255.8 378.435 1256.09 378.915C1256.37 379.395 1256.52 379.912 1256.52 380.467C1256.52 381.587 1255.93 382.744 1254.76 383.939L1251.48 387.235H1256.65V388.531H1249.73V387.171ZM1258.44 377.075H1259.8V384.275L1263.64 380.371H1265.37V380.435L1262.17 383.667L1265.47 388.467V388.531H1263.84L1261.21 384.611L1259.8 386.019V388.531H1258.44V377.075Z" fill="#615E83"/>
<path d="M1253.05 316.499C1252.59 316.499 1252.12 316.403 1251.64 316.211C1251.16 316.019 1250.72 315.72 1250.33 315.315C1249.95 314.899 1249.67 314.382 1249.5 313.763L1250.73 313.251C1250.9 313.87 1251.19 314.35 1251.59 314.691C1252.01 315.032 1252.5 315.203 1253.05 315.203C1253.46 315.203 1253.83 315.118 1254.19 314.947C1254.54 314.766 1254.82 314.52 1255.02 314.211C1255.23 313.891 1255.34 313.539 1255.34 313.155C1255.34 312.782 1255.23 312.44 1255.02 312.131C1254.82 311.822 1254.53 311.582 1254.17 311.411C1253.82 311.23 1253.43 311.139 1253 311.139H1252.06V309.875H1252.91C1253.49 309.875 1253.98 309.71 1254.38 309.379C1254.77 309.038 1254.97 308.59 1254.97 308.035C1254.97 307.523 1254.78 307.112 1254.39 306.803C1254.01 306.494 1253.54 306.339 1252.97 306.339C1252.42 306.339 1251.98 306.483 1251.66 306.771C1251.35 307.059 1251.12 307.411 1250.99 307.827L1249.74 307.299C1249.93 306.723 1250.3 306.206 1250.84 305.747C1251.4 305.278 1252.11 305.043 1252.97 305.043C1253.61 305.043 1254.19 305.171 1254.7 305.427C1255.21 305.683 1255.61 306.04 1255.9 306.499C1256.2 306.958 1256.35 307.47 1256.35 308.035C1256.35 308.6 1256.2 309.08 1255.91 309.475C1255.63 309.87 1255.27 310.179 1254.84 310.403V310.467C1255.39 310.691 1255.83 311.038 1256.19 311.507C1256.54 311.966 1256.71 312.51 1256.71 313.139C1256.71 313.779 1256.55 314.355 1256.22 314.867C1255.9 315.379 1255.46 315.779 1254.89 316.067C1254.34 316.355 1253.72 316.499 1253.05 316.499ZM1258.44 304.787H1259.8V311.987L1263.64 308.083H1265.37V308.147L1262.17 311.379L1265.47 316.179V316.243H1263.84L1261.21 312.323L1259.8 313.731V316.243H1258.44V304.787Z" fill="#615E83"/>
<path d="M1253.92 241.604H1248.67V240.58L1253.79 233.012H1255.26V240.324H1256.67V241.604H1255.26V243.956H1253.92V241.604ZM1253.92 240.324V234.996H1253.86L1250.22 240.324H1253.92ZM1258.44 232.5H1259.8V239.7L1263.64 235.796H1265.37V235.86L1262.17 239.092L1265.47 243.892V243.956H1263.84L1261.21 240.036L1259.8 241.444V243.956H1258.44V232.5Z" fill="#615E83"/>
<path d="M1252.8 171.925C1252.29 171.925 1251.79 171.818 1251.28 171.605C1250.78 171.381 1250.34 171.05 1249.96 170.613C1249.57 170.165 1249.3 169.616 1249.14 168.965L1250.34 168.485C1250.51 169.136 1250.81 169.658 1251.24 170.053C1251.66 170.437 1252.18 170.629 1252.77 170.629C1253.49 170.629 1254.07 170.41 1254.52 169.973C1254.98 169.536 1255.2 168.965 1255.2 168.261C1255.2 167.568 1254.98 166.997 1254.53 166.549C1254.08 166.09 1253.51 165.861 1252.8 165.861C1252.42 165.861 1252.06 165.952 1251.72 166.133C1251.38 166.304 1251.1 166.544 1250.88 166.853L1249.51 166.245L1250.21 160.725H1255.88V162.021H1251.33L1250.9 165.333L1250.96 165.349C1251.53 164.869 1252.22 164.629 1253.04 164.629C1253.67 164.629 1254.26 164.784 1254.79 165.093C1255.33 165.402 1255.76 165.834 1256.08 166.389C1256.4 166.944 1256.56 167.562 1256.56 168.245C1256.56 168.928 1256.4 169.552 1256.07 170.117C1255.75 170.672 1255.3 171.114 1254.72 171.445C1254.16 171.765 1253.52 171.925 1252.8 171.925ZM1258.44 160.213H1259.8V167.413L1263.64 163.509H1265.37V163.573L1262.17 166.805L1265.47 171.605V171.669H1263.84L1261.21 167.749L1259.8 169.157V171.669H1258.44V160.213Z" fill="#615E83"/>
<line x1="46.6838" y1="168.012" x2="1200.16" y2="168.012" stroke="#E5E5EF" stroke-linecap="round"/>
<line x1="46.6838" y1="240.299" x2="1200.16" y2="240.299" stroke="#E5E5EF" stroke-linecap="round"/>
<line x1="46.6838" y1="312.586" x2="1200.16" y2="312.586" stroke="#E5E5EF" stroke-linecap="round"/>
<line x1="46.6838" y1="384.874" x2="1200.16" y2="384.874" stroke="#E5E5EF" stroke-linecap="round"/>
<line x1="46.6838" y1="457.161" x2="1200.16" y2="457.161" stroke="#E5E5EF" stroke-linecap="round"/>
<line x1="46.6838" y1="537.25" x2="1200.16" y2="537.25" stroke="#E5E5EF" stroke-linecap="round"/>
<g style="mix-blend-mode:multiply" opacity="0.33">
<path d="M112.357 317.82C93.1606 346.717 61.1555 355.14 47.5525 355.739V536.803H1200.66V261.027C1184.33 266.33 1145.77 290.192 1122.27 343.224C1092.9 409.513 1048.63 367.437 1030.84 354.735C1013.05 342.033 981.605 338.063 962.16 340.048C942.714 342.033 912.098 346.399 897.618 321.789C883.137 297.179 868.518 281.175 828.938 287.255C793.771 288.446 778.463 288.049 761.914 276.141C745.365 264.233 696.131 236.447 660.964 270.584C625.797 304.72 589.388 320.201 551.325 274.156C513.262 228.111 472.716 233.668 456.995 248.752C441.273 263.836 430.92 309.814 393.034 323.328C360.838 329.468 342.028 339.564 308.052 373.391C264.196 417.055 237.717 378.551 217.445 331.712C197.172 284.873 136.353 281.698 112.357 317.82Z" fill="url(#paint0_linear_251_19082)"/>
</g>
<path d="M49.4331 355.431C62.9923 354.832 94.8945 346.409 114.03 317.511C137.948 281.39 198.571 284.565 218.779 331.404C238.986 378.243 265.38 416.747 309.094 373.083C352.808 329.42 356.792 334.973 394.461 323.862C432.493 312.645 433.366 274.908 460.434 248.854C476.105 233.771 513.644 227.803 551.585 273.848C589.526 319.893 625.817 304.412 660.871 270.275C695.925 236.139 745 263.924 761.496 275.833C777.992 287.741 797.717 291.437 828.305 286.947C866.414 281.353 882.329 296.871 896.763 321.481C911.197 346.091 941.714 341.725 961.097 339.74C980.48 337.755 1011.82 341.725 1029.56 354.427C1047.29 367.129 1091.42 409.205 1120.7 342.916C1144.12 289.884 1182.55 266.022 1198.83 260.719" stroke="#F99E24" stroke-width="3" stroke-linecap="round" stroke-linejoin="round"/>
<line x1="833.876" y1="284.671" x2="833.876" y2="536.75" stroke="#F99E24" stroke-width="2" stroke-linecap="round"/>
<g filter="url(#filter1_d_251_19082)">
<circle cx="833" cy="285" r="9" fill="#F99E24"/>
<circle cx="833" cy="285" r="8" stroke="white" stroke-width="2"/>
</g>
<path fill-rule="evenodd" clip-rule="evenodd" d="M811.227 285.176C812.136 284.379 812.136 282.964 811.227 282.167L801.705 273.824L801.705 255.729C801.705 251.311 798.124 247.729 793.705 247.729L686.617 247.729C682.199 247.729 678.617 251.311 678.617 255.729L678.617 311.614C678.617 316.032 682.199 319.614 686.617 319.614L793.705 319.614C798.124 319.614 801.705 316.032 801.705 311.614L801.705 293.519L811.227 285.176Z" fill="#1E1B39"/>
<path d="M724.124 294.51C724.124 295.406 723.842 296.126 723.276 296.67C722.711 297.204 722.002 297.534 721.148 297.662V299.07H719.836V297.694C719.047 297.588 718.338 297.278 717.708 296.766C717.079 296.244 716.652 295.55 716.428 294.686L717.996 294.046C718.114 294.526 718.338 294.942 718.668 295.294C718.999 295.646 719.388 295.881 719.836 295.998V292.526L719.724 292.478C718.818 292.126 718.114 291.689 717.612 291.166C717.111 290.644 716.86 290.004 716.86 289.246C716.86 288.756 716.978 288.297 717.212 287.87C717.458 287.444 717.804 287.092 718.252 286.814C718.7 286.537 719.228 286.366 719.836 286.302V284.926H721.148V286.334C721.906 286.462 722.514 286.74 722.972 287.166C723.431 287.582 723.74 288.036 723.9 288.526L722.348 289.198C722.274 288.942 722.135 288.708 721.932 288.494C721.73 288.281 721.468 288.121 721.148 288.014V291.278C722.119 291.684 722.855 292.126 723.356 292.606C723.868 293.076 724.124 293.71 724.124 294.51ZM718.556 289.246C718.556 289.556 718.658 289.828 718.86 290.062C719.063 290.286 719.388 290.505 719.836 290.718V287.95C719.452 288.025 719.143 288.18 718.908 288.414C718.674 288.638 718.556 288.916 718.556 289.246ZM721.148 295.966C721.522 295.87 721.82 295.7 722.044 295.454C722.268 295.209 722.38 294.9 722.38 294.526C722.38 294.196 722.279 293.924 722.076 293.71C721.884 293.486 721.575 293.273 721.148 293.07V295.966ZM729.254 297.726C728.433 297.726 727.67 297.492 726.966 297.022C726.262 296.542 725.777 295.844 725.51 294.926L727.142 294.254C727.291 294.82 727.547 295.257 727.91 295.566C728.283 295.876 728.731 296.03 729.254 296.03C729.787 296.03 730.246 295.87 730.63 295.55C731.014 295.22 731.206 294.804 731.206 294.302C731.206 293.79 731.003 293.374 730.598 293.054C730.193 292.724 729.686 292.558 729.078 292.558H728.134V290.942H728.982C729.505 290.942 729.942 290.804 730.294 290.526C730.657 290.238 730.838 289.849 730.838 289.358C730.838 288.921 730.678 288.574 730.358 288.318C730.038 288.052 729.633 287.918 729.142 287.918C728.662 287.918 728.278 288.046 727.99 288.302C727.713 288.558 727.51 288.873 727.382 289.246L725.766 288.574C725.979 287.966 726.374 287.433 726.95 286.974C727.526 286.505 728.262 286.27 729.158 286.27C729.819 286.27 730.411 286.398 730.934 286.654C731.467 286.91 731.883 287.268 732.182 287.726C732.481 288.174 732.63 288.681 732.63 289.246C732.63 289.822 732.491 290.313 732.214 290.718C731.937 291.113 731.595 291.417 731.19 291.63V291.726C731.723 291.95 732.161 292.292 732.502 292.75C732.843 293.209 733.014 293.758 733.014 294.398C733.014 295.038 732.849 295.609 732.518 296.11C732.198 296.612 731.75 297.006 731.174 297.294C730.609 297.582 729.969 297.726 729.254 297.726ZM734.405 298.846L735.317 297.454C735.093 297.39 734.896 297.257 734.725 297.054C734.565 296.852 734.485 296.612 734.485 296.334C734.485 295.993 734.602 295.705 734.837 295.47C735.082 295.236 735.376 295.118 735.717 295.118C736.058 295.118 736.346 295.236 736.581 295.47C736.826 295.705 736.949 295.993 736.949 296.334C736.949 296.526 736.912 296.708 736.837 296.878C736.762 297.049 736.65 297.246 736.501 297.47L735.221 299.374L734.405 298.846ZM742.223 297.726C741.401 297.726 740.639 297.492 739.935 297.022C739.231 296.542 738.745 295.844 738.479 294.926L740.111 294.254C740.26 294.82 740.516 295.257 740.879 295.566C741.252 295.876 741.7 296.03 742.223 296.03C742.756 296.03 743.215 295.87 743.599 295.55C743.983 295.22 744.175 294.804 744.175 294.302C744.175 293.79 743.972 293.374 743.567 293.054C743.161 292.724 742.655 292.558 742.047 292.558H741.103V290.942H741.951C742.473 290.942 742.911 290.804 743.263 290.526C743.625 290.238 743.807 289.849 743.807 289.358C743.807 288.921 743.647 288.574 743.327 288.318C743.007 288.052 742.601 287.918 742.111 287.918C741.631 287.918 741.247 288.046 740.959 288.302C740.681 288.558 740.479 288.873 740.351 289.246L738.735 288.574C738.948 287.966 739.343 287.433 739.919 286.974C740.495 286.505 741.231 286.27 742.127 286.27C742.788 286.27 743.38 286.398 743.903 286.654C744.436 286.91 744.852 287.268 745.151 287.726C745.449 288.174 745.599 288.681 745.599 289.246C745.599 289.822 745.46 290.313 745.183 290.718C744.905 291.113 744.564 291.417 744.159 291.63V291.726C744.692 291.95 745.129 292.292 745.471 292.75C745.812 293.209 745.983 293.758 745.983 294.398C745.983 295.038 745.817 295.609 745.487 296.11C745.167 296.612 744.719 297.006 744.143 297.294C743.577 297.582 742.937 297.726 742.223 297.726ZM752.554 295.294H747.434V293.918L752.41 286.526H754.314V293.662H755.706V295.294H754.314V297.47H752.554V295.294ZM752.554 293.662V289.134H752.458L749.402 293.662H752.554ZM761.039 297.726C760.314 297.726 759.658 297.582 759.071 297.294C758.495 297.006 758.042 296.612 757.711 296.11C757.381 295.598 757.215 295.038 757.215 294.43C757.215 293.833 757.375 293.305 757.695 292.846C758.026 292.377 758.442 292.014 758.943 291.758V291.662C758.549 291.396 758.223 291.065 757.967 290.67C757.711 290.265 757.583 289.828 757.583 289.358C757.583 288.782 757.727 288.26 758.015 287.79C758.314 287.31 758.725 286.937 759.247 286.67C759.781 286.404 760.378 286.27 761.039 286.27C761.701 286.27 762.293 286.404 762.815 286.67C763.349 286.937 763.759 287.31 764.047 287.79C764.346 288.26 764.495 288.782 764.495 289.358C764.495 289.828 764.367 290.265 764.111 290.67C763.855 291.065 763.53 291.396 763.135 291.662V291.758C763.637 292.014 764.047 292.377 764.367 292.846C764.698 293.305 764.863 293.833 764.863 294.43C764.863 295.038 764.698 295.598 764.367 296.11C764.037 296.612 763.578 297.006 762.991 297.294C762.415 297.582 761.765 297.726 761.039 297.726ZM761.039 290.958C761.53 290.958 761.935 290.82 762.255 290.542C762.586 290.254 762.751 289.876 762.751 289.406C762.751 288.948 762.591 288.585 762.271 288.318C761.951 288.041 761.541 287.902 761.039 287.902C760.538 287.902 760.127 288.041 759.807 288.318C759.487 288.585 759.327 288.948 759.327 289.406C759.327 289.876 759.487 290.254 759.807 290.542C760.138 290.82 760.549 290.958 761.039 290.958ZM761.039 296.062C761.626 296.062 762.111 295.902 762.495 295.582C762.89 295.252 763.087 294.825 763.087 294.302C763.087 293.79 762.89 293.369 762.495 293.038C762.111 292.708 761.626 292.542 761.039 292.542C760.453 292.542 759.962 292.708 759.567 293.038C759.183 293.369 758.991 293.79 758.991 294.302C758.991 294.825 759.183 295.252 759.567 295.582C759.962 295.902 760.453 296.062 761.039 296.062Z" fill="white"/>
<path d="M710.178 264.768L708.498 265.972L707.882 265.062L710.612 263.102H711.368V272.678H710.178V264.768ZM713.284 273.84L714.04 272.678C713.872 272.65 713.718 272.562 713.578 272.412C713.447 272.263 713.382 272.081 713.382 271.866C713.382 271.624 713.466 271.418 713.634 271.25C713.811 271.073 714.026 270.984 714.278 270.984C714.53 270.984 714.74 271.073 714.908 271.25C715.085 271.418 715.174 271.624 715.174 271.866C715.174 272.025 715.141 272.179 715.076 272.328C715.011 272.468 714.913 272.632 714.782 272.818L713.858 274.218L713.284 273.84ZM719.601 272.902C719.2 272.902 718.789 272.818 718.369 272.65C717.949 272.482 717.566 272.221 717.221 271.866C716.885 271.502 716.642 271.05 716.493 270.508L717.571 270.06C717.72 270.602 717.972 271.022 718.327 271.32C718.691 271.619 719.116 271.768 719.601 271.768C719.956 271.768 720.287 271.694 720.595 271.544C720.903 271.386 721.146 271.171 721.323 270.9C721.51 270.62 721.603 270.312 721.603 269.976C721.603 269.65 721.51 269.351 721.323 269.08C721.146 268.81 720.898 268.6 720.581 268.45C720.273 268.292 719.932 268.212 719.559 268.212H718.733V267.106H719.475C719.988 267.106 720.418 266.962 720.763 266.672C721.108 266.374 721.281 265.982 721.281 265.496C721.281 265.048 721.113 264.689 720.777 264.418C720.441 264.148 720.026 264.012 719.531 264.012C719.046 264.012 718.663 264.138 718.383 264.39C718.112 264.642 717.916 264.95 717.795 265.314L716.703 264.852C716.871 264.348 717.193 263.896 717.669 263.494C718.154 263.084 718.775 262.878 719.531 262.878C720.091 262.878 720.595 262.99 721.043 263.214C721.491 263.438 721.841 263.751 722.093 264.152C722.354 264.554 722.485 265.002 722.485 265.496C722.485 265.991 722.359 266.411 722.107 266.756C721.855 267.102 721.542 267.372 721.169 267.568V267.624C721.645 267.82 722.037 268.124 722.345 268.534C722.653 268.936 722.807 269.412 722.807 269.962C722.807 270.522 722.662 271.026 722.373 271.474C722.093 271.922 721.706 272.272 721.211 272.524C720.726 272.776 720.189 272.902 719.601 272.902ZM728.661 270.62H724.069V269.724L728.549 263.102H729.837V269.5H731.069V270.62H729.837V272.678H728.661V270.62ZM728.661 269.5V264.838H728.605L725.427 269.5H728.661ZM735.602 272.902C734.995 272.902 734.445 272.776 733.95 272.524C733.455 272.272 733.068 271.932 732.788 271.502C732.508 271.064 732.368 270.578 732.368 270.046C732.368 269.505 732.513 269.034 732.802 268.632C733.101 268.222 733.488 267.9 733.964 267.666V267.61C733.591 267.386 733.283 267.092 733.04 266.728C732.807 266.355 732.69 265.968 732.69 265.566C732.69 265.062 732.811 264.605 733.054 264.194C733.306 263.784 733.651 263.462 734.09 263.228C734.538 262.995 735.042 262.878 735.602 262.878C736.153 262.878 736.647 262.995 737.086 263.228C737.534 263.462 737.879 263.784 738.122 264.194C738.374 264.605 738.5 265.062 738.5 265.566C738.5 265.968 738.379 266.355 738.136 266.728C737.903 267.092 737.604 267.386 737.24 267.61V267.666C737.716 267.9 738.099 268.222 738.388 268.632C738.687 269.034 738.836 269.505 738.836 270.046C738.836 270.578 738.691 271.064 738.402 271.502C738.122 271.932 737.735 272.272 737.24 272.524C736.745 272.776 736.199 272.902 735.602 272.902ZM735.602 267.106C736.097 267.106 736.503 266.962 736.82 266.672C737.137 266.383 737.296 266.005 737.296 265.538C737.296 265.072 737.133 264.703 736.806 264.432C736.489 264.152 736.087 264.012 735.602 264.012C735.107 264.012 734.697 264.152 734.37 264.432C734.053 264.703 733.894 265.072 733.894 265.538C733.894 266.005 734.053 266.383 734.37 266.672C734.697 266.962 735.107 267.106 735.602 267.106ZM735.602 271.768C736.171 271.768 736.647 271.605 737.03 271.278C737.422 270.942 737.618 270.508 737.618 269.976C737.618 269.463 737.422 269.043 737.03 268.716C736.647 268.38 736.171 268.212 735.602 268.212C735.033 268.212 734.552 268.38 734.16 268.716C733.768 269.043 733.572 269.463 733.572 269.976C733.572 270.508 733.768 270.942 734.16 271.278C734.552 271.605 735.033 271.768 735.602 271.768ZM746.077 272.902C745.312 272.902 744.672 272.725 744.159 272.37C743.646 272.006 743.282 271.544 743.067 270.984L744.131 270.508C744.308 270.938 744.57 271.269 744.915 271.502C745.27 271.736 745.657 271.852 746.077 271.852C746.525 271.852 746.908 271.764 747.225 271.586C747.542 271.4 747.701 271.138 747.701 270.802C747.701 270.504 747.575 270.266 747.323 270.088C747.071 269.902 746.674 269.743 746.133 269.612L745.265 269.388C744.696 269.248 744.229 269.01 743.865 268.674C743.501 268.338 743.319 267.904 743.319 267.372C743.319 266.962 743.44 266.602 743.683 266.294C743.935 265.977 744.266 265.734 744.677 265.566C745.088 265.398 745.531 265.314 746.007 265.314C746.632 265.314 747.188 265.45 747.673 265.72C748.168 265.991 748.518 266.369 748.723 266.854L747.687 267.33C747.37 266.696 746.805 266.378 745.993 266.378C745.601 266.378 745.256 266.472 744.957 266.658C744.668 266.836 744.523 267.064 744.523 267.344C744.523 267.606 744.626 267.82 744.831 267.988C745.036 268.147 745.344 268.278 745.755 268.38L746.791 268.646C747.491 268.824 748.018 269.09 748.373 269.444C748.728 269.79 748.905 270.214 748.905 270.718C748.905 271.157 748.779 271.544 748.527 271.88C748.275 272.207 747.934 272.459 747.505 272.636C747.076 272.814 746.6 272.902 746.077 272.902ZM752.552 272.902C752.03 272.902 751.563 272.8 751.152 272.594C750.742 272.389 750.424 272.109 750.2 271.754C749.976 271.39 749.864 270.98 749.864 270.522C749.864 269.766 750.149 269.178 750.718 268.758C751.288 268.329 752.006 268.114 752.874 268.114C753.304 268.114 753.7 268.161 754.064 268.254C754.438 268.348 754.722 268.455 754.918 268.576V268.142C754.918 267.61 754.732 267.186 754.358 266.868C753.985 266.542 753.514 266.378 752.944 266.378C752.552 266.378 752.184 266.467 751.838 266.644C751.502 266.812 751.236 267.05 751.04 267.358L750.144 266.686C750.424 266.257 750.812 265.921 751.306 265.678C751.801 265.436 752.347 265.314 752.944 265.314C753.915 265.314 754.676 265.571 755.226 266.084C755.777 266.588 756.052 267.279 756.052 268.156V272.678H754.918V271.656H754.862C754.657 272.002 754.349 272.296 753.938 272.538C753.528 272.781 753.066 272.902 752.552 272.902ZM752.664 271.852C753.066 271.852 753.439 271.75 753.784 271.544C754.13 271.339 754.405 271.064 754.61 270.718C754.816 270.373 754.918 269.995 754.918 269.584C754.694 269.435 754.419 269.314 754.092 269.22C753.766 269.127 753.42 269.08 753.056 269.08C752.403 269.08 751.908 269.216 751.572 269.486C751.246 269.757 751.082 270.107 751.082 270.536C751.082 270.928 751.232 271.246 751.53 271.488C751.829 271.731 752.207 271.852 752.664 271.852ZM757.708 262.654H758.898V272.678H757.708V262.654ZM763.771 272.902C763.089 272.902 762.478 272.739 761.937 272.412C761.395 272.086 760.971 271.638 760.663 271.068C760.364 270.49 760.215 269.841 760.215 269.122C760.215 268.441 760.355 267.811 760.635 267.232C760.924 266.644 761.33 266.178 761.853 265.832C762.385 265.487 762.991 265.314 763.673 265.314C764.373 265.314 764.979 265.473 765.493 265.79C766.006 266.098 766.398 266.528 766.669 267.078C766.949 267.629 767.089 268.259 767.089 268.968C767.089 269.08 767.079 269.202 767.061 269.332H761.405C761.433 269.874 761.563 270.331 761.797 270.704C762.03 271.078 762.324 271.358 762.679 271.544C763.043 271.731 763.421 271.824 763.813 271.824C764.746 271.824 765.451 271.395 765.927 270.536L766.935 271.026C766.636 271.596 766.221 272.053 765.689 272.398C765.157 272.734 764.517 272.902 763.771 272.902ZM765.829 268.352C765.81 268.054 765.726 267.755 765.577 267.456C765.427 267.158 765.194 266.906 764.877 266.7C764.559 266.495 764.158 266.392 763.673 266.392C763.113 266.392 762.637 266.574 762.245 266.938C761.853 267.293 761.596 267.764 761.475 268.352H765.829ZM771.042 272.902C770.276 272.902 769.637 272.725 769.124 272.37C768.61 272.006 768.246 271.544 768.032 270.984L769.096 270.508C769.273 270.938 769.534 271.269 769.88 271.502C770.234 271.736 770.622 271.852 771.042 271.852C771.49 271.852 771.872 271.764 772.19 271.586C772.507 271.4 772.666 271.138 772.666 270.802C772.666 270.504 772.54 270.266 772.288 270.088C772.036 269.902 771.639 269.743 771.098 269.612L770.23 269.388C769.66 269.248 769.194 269.01 768.83 268.674C768.466 268.338 768.284 267.904 768.284 267.372C768.284 266.962 768.405 266.602 768.648 266.294C768.9 265.977 769.231 265.734 769.642 265.566C770.052 265.398 770.496 265.314 770.972 265.314C771.597 265.314 772.152 265.45 772.638 265.72C773.132 265.991 773.482 266.369 773.688 266.854L772.652 267.33C772.334 266.696 771.77 266.378 770.958 266.378C770.566 266.378 770.22 266.472 769.922 266.658C769.632 266.836 769.488 267.064 769.488 267.344C769.488 267.606 769.59 267.82 769.796 267.988C770.001 268.147 770.309 268.278 770.72 268.38L771.756 268.646C772.456 268.824 772.983 269.09 773.338 269.444C773.692 269.79 773.87 270.214 773.87 270.718C773.87 271.157 773.744 271.544 773.492 271.88C773.24 272.207 772.899 272.459 772.47 272.636C772.04 272.814 771.564 272.902 771.042 272.902Z" fill="#E5E5EF"/>
<path d="M251.351 93.7201H252.667L255.145 100.986L255.481 101.98H255.537L255.887 100.986L258.477 93.7201H259.793L256.125 103.744H254.907L251.351 93.7201ZM264.747 103.968C264.243 103.968 263.753 103.865 263.277 103.66C262.811 103.445 262.395 103.137 262.031 102.736C261.667 102.325 261.406 101.831 261.247 101.252L262.381 100.79C262.54 101.387 262.834 101.877 263.263 102.26C263.693 102.643 264.197 102.834 264.775 102.834C265.354 102.834 265.844 102.68 266.245 102.372C266.647 102.055 266.847 101.625 266.847 101.084C266.847 100.617 266.675 100.235 266.329 99.9361C265.993 99.6281 265.438 99.3435 264.663 99.0821L264.033 98.8581C263.324 98.6061 262.745 98.2748 262.297 97.8641C261.849 97.4535 261.625 96.8841 261.625 96.1561C261.625 95.6801 261.756 95.2415 262.017 94.8401C262.279 94.4295 262.643 94.1028 263.109 93.8601C263.576 93.6175 264.099 93.4961 264.677 93.4961C265.256 93.4961 265.76 93.6035 266.189 93.8181C266.619 94.0328 266.959 94.2941 267.211 94.6021C267.473 94.9101 267.655 95.2135 267.757 95.5121L266.651 95.9881C266.549 95.6428 266.329 95.3301 265.993 95.0501C265.667 94.7701 265.233 94.6301 264.691 94.6301C264.178 94.6301 263.739 94.7748 263.375 95.0641C263.011 95.3535 262.829 95.7175 262.829 96.1561C262.829 96.5481 262.983 96.8701 263.291 97.1221C263.599 97.3648 264.066 97.5935 264.691 97.8081L265.349 98.0321C266.199 98.3401 266.861 98.7275 267.337 99.1941C267.813 99.6515 268.051 100.277 268.051 101.07C268.051 101.714 267.883 102.255 267.547 102.694C267.221 103.133 266.805 103.455 266.301 103.66C265.797 103.865 265.279 103.968 264.747 103.968ZM274.743 93.7201H275.933V102.61H280.315V103.744H274.743V93.7201ZM285.604 93.7201H286.948L290.756 103.744H289.454L288.446 100.986H284.106L283.098 103.744H281.796L285.604 93.7201ZM288.04 99.8661L286.696 96.2541L286.304 95.1761H286.248L285.856 96.2541L284.512 99.8661H288.04ZM295.724 103.968C295.22 103.968 294.73 103.865 294.254 103.66C293.788 103.445 293.372 103.137 293.008 102.736C292.644 102.325 292.383 101.831 292.224 101.252L293.358 100.79C293.517 101.387 293.811 101.877 294.24 102.26C294.67 102.643 295.174 102.834 295.752 102.834C296.331 102.834 296.821 102.68 297.222 102.372C297.624 102.055 297.824 101.625 297.824 101.084C297.824 100.617 297.652 100.235 297.306 99.9361C296.97 99.6281 296.415 99.3435 295.64 99.0821L295.01 98.8581C294.301 98.6061 293.722 98.2748 293.274 97.8641C292.826 97.4535 292.602 96.8841 292.602 96.1561C292.602 95.6801 292.733 95.2415 292.994 94.8401C293.256 94.4295 293.62 94.1028 294.086 93.8601C294.553 93.6175 295.076 93.4961 295.654 93.4961C296.233 93.4961 296.737 93.6035 297.166 93.8181C297.596 94.0328 297.936 94.2941 298.188 94.6021C298.45 94.9101 298.632 95.2135 298.734 95.5121L297.628 95.9881C297.526 95.6428 297.306 95.3301 296.97 95.0501C296.644 94.7701 296.21 94.6301 295.668 94.6301C295.155 94.6301 294.716 94.7748 294.352 95.0641C293.988 95.3535 293.806 95.7175 293.806 96.1561C293.806 96.5481 293.96 96.8701 294.268 97.1221C294.576 97.3648 295.043 97.5935 295.668 97.8081L296.326 98.0321C297.176 98.3401 297.838 98.7275 298.314 99.1941C298.79 99.6515 299.028 100.277 299.028 101.07C299.028 101.714 298.86 102.255 298.524 102.694C298.198 103.133 297.782 103.455 297.278 103.66C296.774 103.865 296.256 103.968 295.724 103.968ZM303.547 94.8541H300.733V93.7201H307.537V94.8541H304.737V103.744H303.547V94.8541ZM315.874 99.1101L312.486 93.7201H313.872L316.434 97.9201H316.49L319.01 93.7201H320.396L317.064 99.1101V103.744H315.874V99.1101ZM322.562 93.7201H328.358V94.8541H323.752V98.1721H327.91V99.2921H323.752V102.61H328.358V103.744H322.562V93.7201ZM334.011 93.7201H335.355L339.163 103.744H337.861L336.853 100.986H332.513L331.505 103.744H330.203L334.011 93.7201ZM336.447 99.8661L335.103 96.2541L334.711 95.1761H334.655L334.263 96.2541L332.919 99.8661H336.447ZM341.332 93.7201H344.72C345.27 93.7201 345.784 93.8461 346.26 94.0981C346.736 94.3501 347.114 94.7048 347.394 95.1621C347.683 95.6101 347.828 96.1188 347.828 96.6881C347.828 97.1548 347.72 97.5888 347.506 97.9901C347.3 98.3915 347.011 98.7275 346.638 98.9981C346.274 99.2688 345.868 99.4508 345.42 99.5441L345.392 99.5861L348.22 103.688V103.744H346.82L344.09 99.6561H342.522V103.744H341.332V93.7201ZM344.65 98.5501C344.995 98.5501 345.317 98.4708 345.616 98.3121C345.924 98.1535 346.166 97.9341 346.344 97.6541C346.53 97.3648 346.624 97.0428 346.624 96.6881C346.624 96.3801 346.544 96.0861 346.386 95.8061C346.227 95.5261 346.003 95.2975 345.714 95.1201C345.434 94.9428 345.107 94.8541 344.734 94.8541H342.522V98.5501H344.65Z" fill="#9291A5"/>
<path d="M207.34 96.5621L205.898 97.6121L204.974 96.1981L207.788 94.1681H209.174V103.744H207.34V96.5621ZM212.403 103.828C212.067 103.828 211.777 103.711 211.535 103.478C211.301 103.235 211.185 102.946 211.185 102.61C211.185 102.274 211.301 101.989 211.535 101.756C211.777 101.523 212.067 101.406 212.403 101.406C212.739 101.406 213.023 101.523 213.257 101.756C213.499 101.989 213.621 102.274 213.621 102.61C213.621 102.946 213.499 103.235 213.257 103.478C213.023 103.711 212.739 103.828 212.403 103.828ZM218.396 103.968C217.584 103.968 216.866 103.753 216.24 103.324C215.624 102.895 215.2 102.269 214.966 101.448L216.702 100.762C216.814 101.219 217.015 101.574 217.304 101.826C217.594 102.069 217.958 102.19 218.396 102.19C218.798 102.19 219.143 102.069 219.432 101.826C219.731 101.583 219.88 101.275 219.88 100.902C219.88 100.501 219.722 100.183 219.404 99.9501C219.096 99.7075 218.676 99.5861 218.144 99.5861H217.318V97.9201H218.074C218.485 97.9201 218.83 97.8175 219.11 97.6121C219.4 97.4068 219.544 97.1081 219.544 96.7161C219.544 96.3988 219.428 96.1375 219.194 95.9321C218.961 95.7268 218.662 95.6241 218.298 95.6241C217.916 95.6241 217.608 95.7268 217.374 95.9321C217.141 96.1375 216.978 96.3941 216.884 96.7021L215.218 96.0161C215.414 95.4561 215.774 94.9708 216.296 94.5601C216.828 94.1495 217.5 93.9441 218.312 93.9441C218.91 93.9441 219.442 94.0561 219.908 94.2801C220.384 94.5041 220.753 94.8121 221.014 95.2041C221.276 95.5868 221.406 96.0208 221.406 96.5061C221.406 97.0195 221.285 97.4581 221.042 97.8221C220.809 98.1861 220.524 98.4521 220.188 98.6201V98.7321C220.655 98.9188 221.033 99.2128 221.322 99.6141C221.612 100.015 221.756 100.501 221.756 101.07C221.756 101.621 221.616 102.115 221.336 102.554C221.056 102.993 220.66 103.338 220.146 103.59C219.642 103.842 219.059 103.968 218.396 103.968ZM225.429 98.7321C224.962 98.7321 224.538 98.6248 224.155 98.4101C223.782 98.1955 223.488 97.9061 223.273 97.5421C223.058 97.1781 222.951 96.7768 222.951 96.3381C222.951 95.8995 223.058 95.4981 223.273 95.1341C223.488 94.7701 223.782 94.4808 224.155 94.2661C224.538 94.0515 224.962 93.9441 225.429 93.9441C225.886 93.9441 226.302 94.0515 226.675 94.2661C227.058 94.4808 227.356 94.7701 227.571 95.1341C227.786 95.4981 227.893 95.8995 227.893 96.3381C227.893 96.7768 227.786 97.1781 227.571 97.5421C227.356 97.9061 227.058 98.1955 226.675 98.4101C226.302 98.6248 225.886 98.7321 225.429 98.7321ZM224.729 103.226L230.945 93.9441L232.051 94.6861L225.835 103.968L224.729 103.226ZM225.429 97.3601C225.709 97.3601 225.938 97.2668 226.115 97.0801C226.302 96.8935 226.395 96.6461 226.395 96.3381C226.395 96.0301 226.302 95.7828 226.115 95.5961C225.938 95.4095 225.709 95.3161 225.429 95.3161C225.158 95.3161 224.93 95.4141 224.743 95.6101C224.556 95.7968 224.463 96.0395 224.463 96.3381C224.463 96.6368 224.556 96.8841 224.743 97.0801C224.93 97.2668 225.158 97.3601 225.429 97.3601ZM231.365 103.968C230.898 103.968 230.474 103.861 230.091 103.646C229.718 103.431 229.424 103.142 229.209 102.778C228.994 102.414 228.887 102.013 228.887 101.574C228.887 101.135 228.994 100.734 229.209 100.37C229.424 100.006 229.718 99.7168 230.091 99.5021C230.474 99.2875 230.898 99.1801 231.365 99.1801C231.822 99.1801 232.238 99.2875 232.611 99.5021C232.994 99.7168 233.292 100.006 233.507 100.37C233.722 100.734 233.829 101.135 233.829 101.574C233.829 102.013 233.722 102.414 233.507 102.778C233.292 103.142 232.994 103.431 232.611 103.646C232.238 103.861 231.822 103.968 231.365 103.968ZM231.365 102.596C231.645 102.596 231.874 102.503 232.051 102.316C232.238 102.129 232.331 101.882 232.331 101.574C232.331 101.266 232.238 101.019 232.051 100.832C231.874 100.645 231.645 100.552 231.365 100.552C231.094 100.552 230.866 100.65 230.679 100.846C230.492 101.033 230.399 101.275 230.399 101.574C230.399 101.873 230.492 102.12 230.679 102.316C230.866 102.503 231.094 102.596 231.365 102.596Z" fill="#04CE00"/>
<ellipse cx="191.828" cy="99.6353" rx="5" ry="6.02393" fill="#04CE00"/>
<path d="M192.95 98.9936L192.816 99.1552C192.098 100.02 191.38 100.885 190.662 101.75C190.517 101.925 190.345 101.964 190.174 101.868C190.009 101.775 189.918 101.603 189.942 101.396C189.964 101.247 190.022 101.108 190.11 101C190.804 100.148 191.508 99.3073 192.208 98.4633L192.341 98.3034C192.298 98.2946 192.255 98.2885 192.212 98.2852C191.931 98.2837 191.65 98.287 191.369 98.2827C191.147 98.2797 190.993 98.0953 190.99 97.8391C190.987 97.5597 191.127 97.3724 191.359 97.3706C192.005 97.3656 192.651 97.365 193.296 97.3688C193.557 97.3706 193.704 97.5406 193.709 97.8515C193.721 98.6233 193.728 99.3952 193.73 100.167C193.731 100.45 193.578 100.617 193.345 100.614C193.125 100.612 192.98 100.441 192.973 100.166C192.966 99.8401 192.965 99.5136 192.961 99.187C192.96 99.1356 192.955 99.0851 192.95 98.9936Z" fill="white"/>
<path d="M63.0158 91.9862C63.0158 93.7995 62.4398 95.2608 61.2878 96.3702C60.1358 97.4795 58.6958 98.1622 56.9678 98.4182V101.234H54.1198V98.4502C52.4772 98.2155 51.0372 97.5755 49.7998 96.5302C48.5625 95.4848 47.6878 94.0662 47.1758 92.2742L50.8558 90.7702C51.0905 91.6448 51.4958 92.4128 52.0718 93.0742C52.6478 93.7355 53.3305 94.1942 54.1198 94.4502V88.3382L53.8318 88.2422C49.9918 86.7488 48.0718 84.5728 48.0718 81.7142C48.0718 80.1568 48.6158 78.8235 49.7038 77.7142C50.8132 76.5835 52.2852 75.9115 54.1198 75.6982V72.9462H56.9678V75.7622C58.5252 76.0182 59.7625 76.5728 60.6798 77.4262C61.5972 78.2582 62.2265 79.1968 62.5678 80.2422L58.9838 81.8422C58.8345 81.3728 58.5892 80.9462 58.2478 80.5622C57.9065 80.1782 57.4798 79.8902 56.9678 79.6982V85.4262C59.0158 86.2795 60.5305 87.1862 61.5118 88.1462C62.5145 89.1062 63.0158 90.3862 63.0158 91.9862ZM52.0078 81.7142C52.0078 82.2262 52.1678 82.6742 52.4878 83.0582C52.8292 83.4208 53.3732 83.7942 54.1198 84.1782V79.5062C53.4798 79.6768 52.9678 79.9542 52.5838 80.3382C52.1998 80.7222 52.0078 81.1808 52.0078 81.7142ZM56.9678 94.4502C57.5652 94.2368 58.0345 93.9275 58.3758 93.5222C58.7385 93.0955 58.9198 92.5942 58.9198 92.0182C58.9198 91.4422 58.7705 90.9728 58.4718 90.6102C58.1945 90.2475 57.6932 89.8848 56.9678 89.5222V94.4502ZM71.4076 81.6182L68.1116 84.0182L65.9996 80.7862L72.4316 76.1462H75.5996V98.0342H71.4076V81.6182ZM80.3791 94.2262C81.0831 93.5222 82.4378 92.1675 84.4431 90.1622C86.4698 88.1355 87.7711 86.8128 88.3471 86.1942C89.1151 85.3622 89.6378 84.6688 89.9151 84.1142C90.2138 83.5595 90.3631 82.9302 90.3631 82.2262C90.3631 81.4795 90.0858 80.8502 89.5311 80.3382C88.9764 79.8262 88.2404 79.5702 87.3231 79.5702C86.4271 79.5702 85.7018 79.8262 85.1471 80.3382C84.5924 80.8502 84.1978 81.4902 83.9631 82.2582L80.1871 80.6902C80.4218 79.8582 80.8484 79.0582 81.4671 78.2902C82.1071 77.5008 82.9284 76.8608 83.9311 76.3702C84.9338 75.8795 86.0858 75.6342 87.3871 75.6342C88.8378 75.6342 90.1071 75.9222 91.1951 76.4982C92.2831 77.0528 93.1258 77.8208 93.7231 78.8022C94.3204 79.7622 94.6191 80.8395 94.6191 82.0342C94.6191 84.4022 93.4671 86.7168 91.1631 88.9782C90.2244 89.8955 88.4858 91.6235 85.9471 94.1622L86.0431 94.3542H94.9071V98.0342H80.3791V94.2262ZM101.072 98.2262C100.304 98.2262 99.643 97.9595 99.0883 97.4262C98.555 96.8715 98.2883 96.2102 98.2883 95.4422C98.2883 94.6742 98.555 94.0235 99.0883 93.4902C99.643 92.9568 100.304 92.6902 101.072 92.6902C101.84 92.6902 102.491 92.9568 103.024 93.4902C103.579 94.0235 103.856 94.6742 103.856 95.4422C103.856 96.2102 103.579 96.8715 103.024 97.4262C102.491 97.9595 101.84 98.2262 101.072 98.2262ZM108.181 96.5942L117.301 80.2742L117.173 80.0822H107.125V76.1462H122.005V80.2742L111.701 98.5462L108.181 96.5942ZM125.513 75.1222H129.705V87.6022H129.929L135.785 81.7142H140.937V81.9702L134.761 88.0182L141.225 97.7782V98.0342H136.265L131.817 90.8982L129.705 92.9782V98.0342H125.513V75.1222Z" fill="#1E1B39"/>
<path d="M51.2238 58.8407C50.5758 58.8407 49.9458 58.7087 49.3338 58.4447C48.7338 58.1687 48.1998 57.7727 47.7318 57.2567C47.2638 56.7287 46.9278 56.0927 46.7238 55.3487L48.1818 54.7547C48.3858 55.5227 48.7638 56.1527 49.3158 56.6447C49.8678 57.1367 50.5158 57.3827 51.2598 57.3827C52.0038 57.3827 52.6338 57.1847 53.1498 56.7887C53.6658 56.3807 53.9238 55.8287 53.9238 55.1327C53.9238 54.5327 53.7018 54.0407 53.2578 53.6567C52.8258 53.2607 52.1118 52.8947 51.1158 52.5587L50.3058 52.2707C49.3938 51.9467 48.6498 51.5207 48.0738 50.9927C47.4978 50.4647 47.2098 49.7327 47.2098 48.7967C47.2098 48.1847 47.3778 47.6207 47.7138 47.1047C48.0498 46.5767 48.5178 46.1567 49.1178 45.8447C49.7178 45.5327 50.3898 45.3767 51.1338 45.3767C51.8778 45.3767 52.5258 45.5147 53.0778 45.7907C53.6298 46.0667 54.0678 46.4027 54.3918 46.7987C54.7278 47.1947 54.9618 47.5847 55.0938 47.9687L53.6718 48.5807C53.5398 48.1367 53.2578 47.7347 52.8258 47.3747C52.4058 47.0147 51.8478 46.8347 51.1518 46.8347C50.4918 46.8347 49.9278 47.0207 49.4598 47.3927C48.9918 47.7647 48.7578 48.2327 48.7578 48.7967C48.7578 49.3007 48.9558 49.7147 49.3518 50.0387C49.7478 50.3507 50.3478 50.6447 51.1518 50.9207L51.9978 51.2087C53.0898 51.6047 53.9418 52.1027 54.5538 52.7027C55.1658 53.2907 55.4718 54.0947 55.4718 55.1147C55.4718 55.9427 55.2558 56.6387 54.8238 57.2027C54.4038 57.7667 53.8698 58.1807 53.2218 58.4447C52.5738 58.7087 51.9078 58.8407 51.2238 58.8407ZM60.3593 58.8407C59.6873 58.8407 59.0873 58.7087 58.5593 58.4447C58.0313 58.1807 57.6233 57.8207 57.3353 57.3647C57.0473 56.8967 56.9033 56.3687 56.9033 55.7807C56.9033 54.8087 57.2693 54.0527 58.0013 53.5127C58.7333 52.9607 59.6573 52.6847 60.7733 52.6847C61.3253 52.6847 61.8353 52.7447 62.3033 52.8647C62.7833 52.9847 63.1493 53.1227 63.4013 53.2787V52.7207C63.4013 52.0367 63.1613 51.4907 62.6813 51.0827C62.2013 50.6627 61.5953 50.4527 60.8633 50.4527C60.3593 50.4527 59.8853 50.5667 59.4413 50.7947C59.0093 51.0107 58.6673 51.3167 58.4153 51.7127L57.2633 50.8487C57.6233 50.2967 58.1213 49.8647 58.7573 49.5527C59.3933 49.2407 60.0953 49.0847 60.8633 49.0847C62.1113 49.0847 63.0893 49.4147 63.7973 50.0747C64.5053 50.7227 64.8593 51.6107 64.8593 52.7387V58.5527H63.4013V57.2387H63.3293C63.0653 57.6827 62.6693 58.0607 62.1413 58.3727C61.6133 58.6847 61.0193 58.8407 60.3593 58.8407ZM60.5033 57.4907C61.0193 57.4907 61.4993 57.3587 61.9433 57.0947C62.3873 56.8307 62.7413 56.4767 63.0053 56.0327C63.2693 55.5887 63.4013 55.1027 63.4013 54.5747C63.1133 54.3827 62.7593 54.2267 62.3393 54.1067C61.9193 53.9867 61.4753 53.9267 61.0073 53.9267C60.1673 53.9267 59.5313 54.1007 59.0993 54.4487C58.6793 54.7967 58.4693 55.2467 58.4693 55.7987C58.4693 56.3027 58.6613 56.7107 59.0453 57.0227C59.4293 57.3347 59.9153 57.4907 60.5033 57.4907ZM66.9878 45.6647H68.5178V58.5527H66.9878V45.6647ZM74.7827 58.8407C73.9067 58.8407 73.1207 58.6307 72.4247 58.2107C71.7287 57.7907 71.1827 57.2147 70.7867 56.4827C70.4027 55.7387 70.2107 54.9047 70.2107 53.9807C70.2107 53.1047 70.3907 52.2947 70.7507 51.5507C71.1227 50.7947 71.6447 50.1947 72.3167 49.7507C73.0007 49.3067 73.7807 49.0847 74.6567 49.0847C75.5567 49.0847 76.3367 49.2887 76.9967 49.6967C77.6567 50.0927 78.1607 50.6447 78.5087 51.3527C78.8687 52.0607 79.0487 52.8707 79.0487 53.7827C79.0487 53.9267 79.0367 54.0827 79.0127 54.2507H71.7407C71.7767 54.9467 71.9447 55.5347 72.2447 56.0147C72.5447 56.4947 72.9227 56.8547 73.3787 57.0947C73.8467 57.3347 74.3327 57.4547 74.8367 57.4547C76.0367 57.4547 76.9427 56.9027 77.5547 55.7987L78.8507 56.4287C78.4667 57.1607 77.9327 57.7487 77.2487 58.1927C76.5647 58.6247 75.7427 58.8407 74.7827 58.8407ZM77.4287 52.9907C77.4047 52.6067 77.2967 52.2227 77.1047 51.8387C76.9127 51.4547 76.6127 51.1307 76.2047 50.8667C75.7967 50.6027 75.2807 50.4707 74.6567 50.4707C73.9367 50.4707 73.3247 50.7047 72.8207 51.1727C72.3167 51.6287 71.9867 52.2347 71.8307 52.9907H77.4287ZM84.1312 58.8407C83.1472 58.8407 82.3252 58.6127 81.6652 58.1567C81.0052 57.6887 80.5372 57.0947 80.2612 56.3747L81.6292 55.7627C81.8572 56.3147 82.1932 56.7407 82.6372 57.0407C83.0932 57.3407 83.5912 57.4907 84.1312 57.4907C84.7072 57.4907 85.1992 57.3767 85.6072 57.1487C86.0152 56.9087 86.2192 56.5727 86.2192 56.1407C86.2192 55.7567 86.0572 55.4507 85.7332 55.2227C85.4092 54.9827 84.8992 54.7787 84.2032 54.6107L83.0872 54.3227C82.3552 54.1427 81.7552 53.8367 81.2872 53.4047C80.8192 52.9727 80.5852 52.4147 80.5852 51.7307C80.5852 51.2027 80.7412 50.7407 81.0532 50.3447C81.3772 49.9367 81.8032 49.6247 82.3312 49.4087C82.8592 49.1927 83.4292 49.0847 84.0412 49.0847C84.8452 49.0847 85.5592 49.2587 86.1832 49.6067C86.8192 49.9547 87.2692 50.4407 87.5332 51.0647L86.2012 51.6767C85.7932 50.8607 85.0672 50.4527 84.0232 50.4527C83.5192 50.4527 83.0752 50.5727 82.6912 50.8127C82.3192 51.0407 82.1332 51.3347 82.1332 51.6947C82.1332 52.0307 82.2652 52.3067 82.5292 52.5227C82.7932 52.7267 83.1892 52.8947 83.7172 53.0267L85.0492 53.3687C85.9492 53.5967 86.6272 53.9387 87.0832 54.3947C87.5392 54.8387 87.7672 55.3847 87.7672 56.0327C87.7672 56.5967 87.6052 57.0947 87.2812 57.5267C86.9572 57.9467 86.5192 58.2707 85.9672 58.4987C85.4152 58.7267 84.8032 58.8407 84.1312 58.8407ZM93.2946 57.0227C95.6466 54.6587 97.1526 53.1167 97.8126 52.3967C98.4246 51.7367 98.8386 51.2207 99.0546 50.8487C99.2706 50.4767 99.3786 50.0267 99.3786 49.4987C99.3786 49.1507 99.2886 48.8147 99.1086 48.4907C98.9286 48.1667 98.6586 47.9087 98.2986 47.7167C97.9506 47.5127 97.5306 47.4107 97.0386 47.4107C96.3906 47.4107 95.8686 47.6027 95.4726 47.9867C95.0766 48.3587 94.8186 48.7667 94.6986 49.2107L93.3126 48.6527C93.4206 48.2687 93.6306 47.8727 93.9426 47.4647C94.2546 47.0447 94.6746 46.6907 95.2026 46.4027C95.7306 46.1027 96.3546 45.9527 97.0746 45.9527C97.8306 45.9527 98.4966 46.1147 99.0726 46.4387C99.6606 46.7627 100.117 47.1947 100.441 47.7347C100.765 48.2747 100.927 48.8567 100.927 49.4807C100.927 50.7407 100.267 52.0427 98.9466 53.3867L95.2566 57.0947H101.071V58.5527H93.2946V57.0227ZM107.755 58.8407C106.783 58.8407 105.919 58.5587 105.163 57.9947C104.419 57.4187 103.843 56.6447 103.435 55.6727C103.039 54.6887 102.841 53.5967 102.841 52.3967C102.841 51.1967 103.039 50.1107 103.435 49.1387C103.843 48.1547 104.419 47.3807 105.163 46.8167C105.907 46.2407 106.771 45.9527 107.755 45.9527C108.739 45.9527 109.603 46.2407 110.347 46.8167C111.091 47.3807 111.667 48.1547 112.075 49.1387C112.483 50.1107 112.687 51.1967 112.687 52.3967C112.687 53.5967 112.483 54.6887 112.075 55.6727C111.667 56.6447 111.085 57.4187 110.329 57.9947C109.585 58.5587 108.727 58.8407 107.755 58.8407ZM107.755 57.3827C108.439 57.3827 109.033 57.1667 109.537 56.7347C110.041 56.2907 110.431 55.6907 110.707 54.9347C110.983 54.1787 111.121 53.3327 111.121 52.3967C111.121 51.4607 110.983 50.6147 110.707 49.8587C110.431 49.1027 110.041 48.5087 109.537 48.0767C109.033 47.6327 108.439 47.4107 107.755 47.4107C107.071 47.4107 106.477 47.6327 105.973 48.0767C105.469 48.5087 105.079 49.1027 104.803 49.8587C104.539 50.6147 104.407 51.4607 104.407 52.3967C104.407 53.3327 104.539 54.1787 104.803 54.9347C105.079 55.6907 105.469 56.2907 105.973 56.7347C106.477 57.1667 107.071 57.3827 107.755 57.3827ZM114.195 57.0227C116.547 54.6587 118.053 53.1167 118.713 52.3967C119.325 51.7367 119.739 51.2207 119.955 50.8487C120.171 50.4767 120.279 50.0267 120.279 49.4987C120.279 49.1507 120.189 48.8147 120.009 48.4907C119.829 48.1667 119.559 47.9087 119.199 47.7167C118.851 47.5127 118.431 47.4107 117.939 47.4107C117.291 47.4107 116.769 47.6027 116.373 47.9867C115.977 48.3587 115.719 48.7667 115.599 49.2107L114.213 48.6527C114.321 48.2687 114.531 47.8727 114.843 47.4647C115.155 47.0447 115.575 46.6907 116.103 46.4027C116.631 46.1027 117.255 45.9527 117.975 45.9527C118.731 45.9527 119.397 46.1147 119.973 46.4387C120.561 46.7627 121.017 47.1947 121.341 47.7347C121.665 48.2747 121.827 48.8567 121.827 49.4807C121.827 50.7407 121.167 52.0427 119.847 53.3867L116.157 57.0947H121.971V58.5527H114.195V57.0227ZM123.67 57.0227C126.022 54.6587 127.528 53.1167 128.188 52.3967C128.8 51.7367 129.214 51.2207 129.43 50.8487C129.646 50.4767 129.754 50.0267 129.754 49.4987C129.754 49.1507 129.664 48.8147 129.484 48.4907C129.304 48.1667 129.034 47.9087 128.674 47.7167C128.326 47.5127 127.906 47.4107 127.414 47.4107C126.766 47.4107 126.244 47.6027 125.848 47.9867C125.452 48.3587 125.194 48.7667 125.074 49.2107L123.688 48.6527C123.796 48.2687 124.006 47.8727 124.318 47.4647C124.63 47.0447 125.05 46.6907 125.578 46.4027C126.106 46.1027 126.73 45.9527 127.45 45.9527C128.206 45.9527 128.872 46.1147 129.448 46.4387C130.036 46.7627 130.492 47.1947 130.816 47.7347C131.14 48.2747 131.302 48.8567 131.302 49.4807C131.302 50.7407 130.642 52.0427 129.322 53.3867L125.632 57.0947H131.446V58.5527H123.67V57.0227Z" fill="#9291A5"/>
<path d="M882.6 36.68H886.92C888.387 36.68 889.667 36.9867 890.76 37.6C891.853 38.2 892.693 39.04 893.28 40.12C893.867 41.2 894.16 42.44 894.16 43.84C894.16 45.24 893.867 46.48 893.28 47.56C892.693 48.64 891.853 49.4867 890.76 50.1C889.667 50.7 888.387 51 886.92 51H882.6V36.68ZM886.92 49.38C888.613 49.38 889.953 48.8933 890.94 47.92C891.94 46.9467 892.44 45.5867 892.44 43.84C892.44 42.0933 891.94 40.7333 890.94 39.76C889.953 38.7867 888.613 38.3 886.92 38.3H884.3V49.38H886.92ZM899.583 51.32C898.836 51.32 898.169 51.1733 897.583 50.88C896.996 50.5867 896.543 50.1867 896.223 49.68C895.903 49.16 895.743 48.5733 895.743 47.92C895.743 46.84 896.149 46 896.963 45.4C897.776 44.7867 898.803 44.48 900.043 44.48C900.656 44.48 901.223 44.5467 901.743 44.68C902.276 44.8133 902.683 44.9667 902.963 45.14V44.52C902.963 43.76 902.696 43.1533 902.163 42.7C901.629 42.2333 900.956 42 900.143 42C899.583 42 899.056 42.1267 898.563 42.38C898.083 42.62 897.703 42.96 897.423 43.4L896.143 42.44C896.543 41.8267 897.096 41.3467 897.803 41C898.509 40.6533 899.289 40.48 900.143 40.48C901.529 40.48 902.616 40.8467 903.403 41.58C904.189 42.3 904.583 43.2867 904.583 44.54V51H902.963V49.54H902.883C902.589 50.0333 902.149 50.4533 901.563 50.8C900.976 51.1467 900.316 51.32 899.583 51.32ZM899.743 49.82C900.316 49.82 900.849 49.6733 901.343 49.38C901.836 49.0867 902.229 48.6933 902.523 48.2C902.816 47.7067 902.963 47.1667 902.963 46.58C902.643 46.3667 902.249 46.1933 901.783 46.06C901.316 45.9267 900.823 45.86 900.303 45.86C899.369 45.86 898.663 46.0533 898.183 46.44C897.716 46.8267 897.483 47.3267 897.483 47.94C897.483 48.5 897.696 48.9533 898.123 49.3C898.549 49.6467 899.089 49.82 899.743 49.82ZM907.948 38.92C907.614 38.92 907.328 38.8 907.088 38.56C906.848 38.32 906.728 38.0333 906.728 37.7C906.728 37.3533 906.848 37.0667 907.088 36.84C907.328 36.6 907.614 36.48 907.948 36.48C908.294 36.48 908.581 36.6 908.808 36.84C909.048 37.0667 909.168 37.3533 909.168 37.7C909.168 38.0333 909.048 38.32 908.808 38.56C908.581 38.8 908.294 38.92 907.948 38.92ZM907.108 40.8H908.808V51H907.108V40.8ZM911.459 36.68H913.159V51H911.459V36.68ZM918.798 50.36L914.578 40.8H916.418L919.618 48.38H919.658L922.738 40.8H924.578L918.278 55.32H916.518L918.798 50.36Z" fill="#83817D"/>
<path d="M994.34 36.68H996.22L998.82 47.2L999.06 48.18H999.14L999.44 47.2L1002.64 36.68H1004.4L1007.46 47.2L1007.76 48.18H1007.84L1010.66 36.68H1012.54L1008.68 51H1006.92L1003.88 40.64L1003.56 39.52H1003.48L1003.14 40.64L999.98 51H998.22L994.34 36.68ZM1017.55 51.32C1016.58 51.32 1015.71 51.0867 1014.93 50.62C1014.16 50.1533 1013.55 49.5133 1013.11 48.7C1012.69 47.8733 1012.47 46.9467 1012.47 45.92C1012.47 44.9467 1012.67 44.0467 1013.07 43.22C1013.49 42.38 1014.07 41.7133 1014.81 41.22C1015.57 40.7267 1016.44 40.48 1017.41 40.48C1018.41 40.48 1019.28 40.7067 1020.01 41.16C1020.75 41.6 1021.31 42.2133 1021.69 43C1022.09 43.7867 1022.29 44.6867 1022.29 45.7C1022.29 45.86 1022.28 46.0333 1022.25 46.22H1014.17C1014.21 46.9933 1014.4 47.6467 1014.73 48.18C1015.07 48.7133 1015.49 49.1133 1015.99 49.38C1016.51 49.6467 1017.05 49.78 1017.61 49.78C1018.95 49.78 1019.95 49.1667 1020.63 47.94L1022.07 48.64C1021.65 49.4533 1021.05 50.1067 1020.29 50.6C1019.53 51.08 1018.62 51.32 1017.55 51.32ZM1020.49 44.82C1020.47 44.3933 1020.35 43.9667 1020.13 43.54C1019.92 43.1133 1019.59 42.7533 1019.13 42.46C1018.68 42.1667 1018.11 42.02 1017.41 42.02C1016.61 42.02 1015.93 42.28 1015.37 42.8C1014.81 43.3067 1014.45 43.98 1014.27 44.82H1020.49ZM1028.92 51.32C1027.95 51.32 1027.07 51.0867 1026.3 50.62C1025.53 50.1533 1024.92 49.5133 1024.48 48.7C1024.05 47.8733 1023.84 46.9467 1023.84 45.92C1023.84 44.9467 1024.04 44.0467 1024.44 43.22C1024.85 42.38 1025.43 41.7133 1026.18 41.22C1026.94 40.7267 1027.81 40.48 1028.78 40.48C1029.78 40.48 1030.65 40.7067 1031.38 41.16C1032.11 41.6 1032.67 42.2133 1033.06 43C1033.46 43.7867 1033.66 44.6867 1033.66 45.7C1033.66 45.86 1033.65 46.0333 1033.62 46.22H1025.54C1025.58 46.9933 1025.77 47.6467 1026.1 48.18C1026.43 48.7133 1026.85 49.1133 1027.36 49.38C1027.88 49.6467 1028.42 49.78 1028.98 49.78C1030.31 49.78 1031.32 49.1667 1032 47.94L1033.44 48.64C1033.01 49.4533 1032.42 50.1067 1031.66 50.6C1030.9 51.08 1029.99 51.32 1028.92 51.32ZM1031.86 44.82C1031.83 44.3933 1031.71 43.9667 1031.5 43.54C1031.29 43.1133 1030.95 42.7533 1030.5 42.46C1030.05 42.1667 1029.47 42.02 1028.78 42.02C1027.98 42.02 1027.3 42.28 1026.74 42.8C1026.18 43.3067 1025.81 43.98 1025.64 44.82H1031.86ZM1035.65 36.68H1037.35V45.68L1042.15 40.8H1044.31V40.88L1040.31 44.92L1044.43 50.92V51H1042.39L1039.11 46.1L1037.35 47.86V51H1035.65V36.68ZM1045.75 36.68H1047.45V51H1045.75V36.68ZM1053.09 50.36L1048.87 40.8H1050.71L1053.91 48.38H1053.95L1057.03 40.8H1058.87L1052.57 55.32H1050.81L1053.09 50.36Z" fill="#83817D"/>
<path d="M1134.68 36.68H1137.24L1142.62 51H1140.14L1138.86 47.34H1133.08L1131.78 51H1129.3L1134.68 36.68ZM1138.1 45.26L1136.58 41L1136.02 39.34H1135.9L1135.34 41L1133.82 45.26H1138.1ZM1144.21 40.8H1146.31V42.14H1146.41C1146.7 41.66 1147.13 41.2667 1147.71 40.96C1148.29 40.64 1148.91 40.48 1149.57 40.48C1150.81 40.48 1151.75 40.8467 1152.39 41.58C1153.04 42.3 1153.37 43.2867 1153.37 44.54V51H1151.17V44.84C1151.17 44.04 1150.97 43.4533 1150.57 43.08C1150.18 42.7067 1149.64 42.52 1148.95 42.52C1148.45 42.52 1148.01 42.66 1147.63 42.94C1147.24 43.2067 1146.94 43.5667 1146.73 44.02C1146.51 44.4733 1146.41 44.96 1146.41 45.48V51H1144.21V40.8ZM1155.85 40.8H1157.95V42.14H1158.05C1158.34 41.66 1158.77 41.2667 1159.35 40.96C1159.93 40.64 1160.55 40.48 1161.21 40.48C1162.45 40.48 1163.39 40.8467 1164.03 41.58C1164.68 42.3 1165.01 43.2867 1165.01 44.54V51H1162.81V44.84C1162.81 44.04 1162.61 43.4533 1162.21 43.08C1161.82 42.7067 1161.28 42.52 1160.59 42.52C1160.09 42.52 1159.65 42.66 1159.27 42.94C1158.88 43.2067 1158.58 43.5667 1158.37 44.02C1158.15 44.4733 1158.05 44.96 1158.05 45.48V51H1155.85V40.8ZM1171.21 51.32C1169.97 51.32 1169.02 50.9533 1168.37 50.22C1167.73 49.4733 1167.41 48.44 1167.41 47.12V40.8H1169.61V46.82C1169.61 47.6467 1169.8 48.2667 1170.19 48.68C1170.59 49.0933 1171.11 49.3 1171.75 49.3C1172.27 49.3 1172.73 49.1667 1173.13 48.9C1173.53 48.62 1173.83 48.2533 1174.05 47.8C1174.26 47.3467 1174.37 46.86 1174.37 46.34V40.8H1176.57V51H1174.49V49.68H1174.37C1174.09 50.16 1173.65 50.5533 1173.07 50.86C1172.48 51.1667 1171.86 51.32 1171.21 51.32ZM1182.23 51.32C1181.5 51.32 1180.84 51.18 1180.27 50.9C1179.7 50.6067 1179.25 50.2 1178.93 49.68C1178.61 49.1467 1178.45 48.5467 1178.45 47.88C1178.45 46.8267 1178.84 45.9933 1179.63 45.38C1180.43 44.7667 1181.44 44.46 1182.65 44.46C1183.25 44.46 1183.79 44.52 1184.27 44.64C1184.75 44.7467 1185.13 44.8667 1185.41 45V44.48C1185.41 43.8533 1185.18 43.3467 1184.71 42.96C1184.24 42.56 1183.64 42.36 1182.91 42.36C1182.39 42.36 1181.9 42.4733 1181.43 42.7C1180.98 42.9267 1180.61 43.24 1180.33 43.64L1178.79 42.46C1179.24 41.8333 1179.83 41.3467 1180.55 41C1181.27 40.6533 1182.07 40.48 1182.95 40.48C1184.43 40.48 1185.57 40.8467 1186.37 41.58C1187.17 42.3 1187.57 43.32 1187.57 44.64V51H1185.41V49.78H1185.31C1185.02 50.22 1184.6 50.5867 1184.07 50.88C1183.54 51.1733 1182.92 51.32 1182.23 51.32ZM1182.61 49.5C1183.14 49.5 1183.62 49.3733 1184.05 49.12C1184.48 48.8667 1184.81 48.5267 1185.05 48.1C1185.29 47.6733 1185.41 47.2133 1185.41 46.72C1185.1 46.5467 1184.74 46.4067 1184.33 46.3C1183.93 46.1933 1183.51 46.14 1183.07 46.14C1182.24 46.14 1181.64 46.3067 1181.25 46.64C1180.86 46.96 1180.67 47.38 1180.67 47.9C1180.67 48.3667 1180.85 48.7533 1181.21 49.06C1181.57 49.3533 1182.04 49.5 1182.61 49.5ZM1189.97 36.68H1192.17V51H1189.97V36.68ZM1194.75 36.68H1196.95V51H1194.75V36.68ZM1202.66 50.44L1198.42 40.8H1200.88L1203.76 47.74H1203.84L1206.64 40.8H1209.06L1202.76 55.32H1200.44L1202.66 50.44Z" fill="#110B05"/>
<path d="M1258 76H833V78H1258V76Z" fill="#B5B5B7" mask="url(#path-40-inside-1_251_19082)"/>
<path d="M1097 76H1237" stroke="#F99E24" stroke-width="3" stroke-linecap="round"/>
<defs>
<filter id="filter0_d_251_19082" x="0" y="0" width="1323" height="659" filterUnits="userSpaceOnUse" color-interpolation-filters="sRGB">
<feFlood flood-opacity="0" result="BackgroundImageFix"/>
<feColorMatrix in="SourceAlpha" type="matrix" values="0 0 0 0 0 0 0 0 0 0 0 0 0 0 0 0 0 0 127 0" result="hardAlpha"/>
<feOffset dy="2"/>
<feGaussianBlur stdDeviation="3"/>
<feComposite in2="hardAlpha" operator="out"/>
<feColorMatrix type="matrix" values="0 0 0 0 0.0509804 0 0 0 0 0.0392157 0 0 0 0 0.172549 0 0 0 0.08 0"/>
<feBlend mode="normal" in2="BackgroundImageFix" result="effect1_dropShadow_251_19082"/>
<feBlend mode="normal" in="SourceGraphic" in2="effect1_dropShadow_251_19082" result="shape"/>
</filter>
<filter id="filter1_d_251_19082" x="816" y="276" width="34" height="34" filterUnits="userSpaceOnUse" color-interpolation-filters="sRGB">
<feFlood flood-opacity="0" result="BackgroundImageFix"/>
<feColorMatrix in="SourceAlpha" type="matrix" values="0 0 0 0 0 0 0 0 0 0 0 0 0 0 0 0 0 0 127 0" result="hardAlpha"/>
<feOffset dy="8"/>
<feGaussianBlur stdDeviation="4"/>
<feComposite in2="hardAlpha" operator="out"/>
<feColorMatrix type="matrix" values="0 0 0 0 0.0509804 0 0 0 0 0.0392157 0 0 0 0 0.172549 0 0 0 0.08 0"/>
<feBlend mode="normal" in2="BackgroundImageFix" result="effect1_dropShadow_251_19082"/>
<feBlend mode="normal" in="SourceGraphic" in2="effect1_dropShadow_251_19082" result="shape"/>
</filter>
<linearGradient id="paint0_linear_251_19082" x1="624.108" y1="237.902" x2="624.108" y2="546.888" gradientUnits="userSpaceOnUse">
<stop stop-color="#F99E24"/>
<stop offset="0.46679" stop-color="#FFBA5F" stop-opacity="0.1"/>
<stop offset="1" stop-color="white"/>
</linearGradient>
</defs>
</svg>
