<svg width="483" height="113" viewBox="0 0 483 113" fill="none" xmlns="http://www.w3.org/2000/svg">
<path d="M17.5131 36.9021L17.723 4.72168C0.863218 14.3618 -4.98526 35.8388 4.65487 52.6985C9.28605 60.7996 16.9394 66.7319 25.95 69.1805L28.2026 41.7432L17.5131 36.9021Z" fill="#F99E24"/>
<path d="M53.8349 5.39307L39.5916 27.1498L57.8925 29.7102L26.6914 69.3621C45.5239 74.0912 64.6363 62.6602 69.3654 43.8276C73.0872 28.9967 66.805 13.4662 53.8349 5.39307Z" fill="#F99E24"/>
<path d="M101.914 13.3057H109.441V53.2653H101.914V13.3057Z" fill="black"/>
<path d="M117.543 24.7931H124.413V28.3609H124.86C125.756 26.9897 126.959 25.8984 128.456 25.1009C129.967 24.3034 131.646 23.9116 133.507 23.9116C135.522 23.9116 137.271 24.3873 138.754 25.3388C140.237 26.2902 141.3 27.4794 141.93 28.9346C142.853 27.4515 144.127 26.2342 145.75 25.3108C147.373 24.3873 149.275 23.9116 151.472 23.9116C154.704 23.9116 157.167 24.905 158.874 26.8918C160.567 28.8786 161.42 31.565 161.42 34.9509V53.2518H154.158V36.2941C154.158 34.5032 153.739 33.132 152.899 32.1666C152.06 31.2012 150.898 30.7115 149.415 30.7115C147.512 30.7115 146.001 31.467 144.868 32.9641C143.735 34.4752 143.161 36.448 143.161 38.9105V53.2518H135.844V36.2941C135.844 34.5032 135.41 33.132 134.528 32.1666C133.647 31.2012 132.416 30.7115 130.821 30.7115C129.03 30.7115 127.589 31.467 126.497 32.9641C125.406 34.4752 124.846 36.448 124.846 38.9105V53.2518H117.543V24.7931Z" fill="black"/>
<path d="M168.164 24.7934H175.034V28.2493H175.481C176.265 27.0181 177.398 25.9967 178.881 25.1432C180.364 24.3037 182.085 23.8979 184.016 23.8979C186.591 23.8979 188.913 24.5416 191.026 25.8288C193.125 27.116 194.776 28.9069 195.965 31.2155C197.154 33.5241 197.756 36.1265 197.756 39.0227C197.756 41.961 197.154 44.5774 195.965 46.858C194.776 49.1526 193.125 50.9295 191.026 52.2167C188.927 53.5039 186.591 54.1475 184.016 54.1475C182.085 54.1475 180.364 53.7418 178.853 52.9163C177.342 52.0908 176.223 51.0694 175.481 49.8521H175.034L175.481 53.8677V65.3127H168.164V24.7934ZM186.577 46.3403C187.766 45.6267 188.717 44.6473 189.417 43.3881C190.116 42.1289 190.48 40.6737 190.48 39.0367C190.48 37.3997 190.13 35.9446 189.417 34.6854C188.703 33.4262 187.766 32.4467 186.577 31.7612C185.387 31.0756 184.1 30.7258 182.729 30.7258C181.386 30.7258 180.127 31.0756 178.937 31.7612C177.748 32.4467 176.797 33.4262 176.097 34.6854C175.383 35.9446 175.034 37.3997 175.034 39.0367C175.034 40.6737 175.383 42.1289 176.097 43.3881C176.811 44.6473 177.748 45.6407 178.937 46.3403C180.127 47.0539 181.4 47.4036 182.729 47.4036C184.1 47.3896 185.387 47.0399 186.577 46.3403Z" fill="black"/>
<path d="M205.549 50.971C203.758 48.8583 202.877 45.8921 202.877 42.1004V24.793H210.194V41.205C210.194 43.1358 210.656 44.6609 211.593 45.7522C212.517 46.8435 213.748 47.4032 215.273 47.4032C217.358 47.4032 219.009 46.6337 220.24 45.1086C221.471 43.5835 222.087 41.6527 222.087 39.3021V24.793H229.391V53.2516H222.521V49.6838H222.073C221.22 51.055 220.016 52.1463 218.477 52.9438C216.938 53.7413 215.231 54.1471 213.37 54.1471C209.942 54.1471 207.34 53.0837 205.549 50.971Z" fill="black"/>
<path d="M236.526 13.3057H243.844V53.2653H236.526V13.3057Z" fill="black"/>
<path d="M253.176 52.0348C251.035 50.6217 249.538 48.7748 248.685 46.5082L255.219 43.6679C255.82 45.0111 256.66 46.0185 257.765 46.7041C258.857 47.3896 260.13 47.7394 261.585 47.7394C262.928 47.7394 264.047 47.5296 264.929 47.0958C265.824 46.6621 266.272 45.9625 266.272 44.9971C266.272 44.0737 265.866 43.3741 265.041 42.8984C264.215 42.4367 262.998 42.0169 261.361 41.6391L258.017 40.9116C255.709 40.3519 253.792 39.3445 252.267 37.8754C250.742 36.4063 249.986 34.5734 249.986 32.3768C249.986 30.7398 250.476 29.2707 251.469 27.9695C252.449 26.6683 253.792 25.6609 255.485 24.9613C257.178 24.2477 259.052 23.8979 261.095 23.8979C266.972 23.8979 270.903 25.9547 272.876 30.0962L266.622 32.8245C265.503 30.8237 263.726 29.8163 261.263 29.8163C260.004 29.8163 258.997 30.0542 258.255 30.5159C257.513 30.9776 257.136 31.5653 257.136 32.2788C257.136 33.622 258.395 34.6294 260.927 35.287L265.111 36.2944C267.937 36.994 270.064 38.0713 271.505 39.5264C272.932 40.9815 273.646 42.7585 273.646 44.8852C273.646 46.7181 273.114 48.3131 272.051 49.7122C270.987 51.1114 269.532 52.2027 267.699 52.9722C265.852 53.7558 263.824 54.1475 261.585 54.1475C258.115 54.1475 255.317 53.434 253.176 52.0348Z" fill="black"/>
<path d="M279.438 20.2738C278.515 19.3503 278.039 18.231 278.039 16.9298C278.039 15.6286 278.501 14.5233 279.438 13.6138C280.361 12.7044 281.481 12.2427 282.782 12.2427C284.083 12.2427 285.188 12.6904 286.098 13.6138C287.007 14.5233 287.469 15.6286 287.469 16.9298C287.469 18.231 287.007 19.3503 286.098 20.2738C285.188 21.1972 284.083 21.6729 282.782 21.6729C281.481 21.6729 280.361 21.2112 279.438 20.2738ZM279.102 24.793H286.406V53.2517H279.102V24.793Z" fill="black"/>
<path d="M290.869 24.793H299.18L306.371 43.3177H306.819L314.123 24.793H322.322L310.149 53.2516H302.888L290.869 24.793Z" fill="black"/>
<path d="M331.165 52.2021C328.898 50.9009 327.121 49.096 325.834 46.8154C324.547 44.5347 323.903 41.9603 323.903 39.0921C323.903 36.3777 324.533 33.8592 325.806 31.5367C327.065 29.2141 328.814 27.3672 331.053 25.982C333.277 24.6109 335.782 23.9253 338.524 23.9253C341.462 23.9253 343.995 24.5549 346.108 25.8141C348.234 27.0734 349.843 28.8083 350.935 31.005C352.026 33.2016 352.586 35.6362 352.586 38.3085C352.586 39.162 352.53 39.9875 352.418 40.771H331.053C331.43 43.0377 332.326 44.7586 333.753 45.9339C335.18 47.1092 336.901 47.6968 338.916 47.6968C340.595 47.6968 342.036 47.333 343.239 46.6055C344.443 45.8779 345.408 44.8985 346.108 43.6813L352.026 46.5775C349.13 51.6424 344.722 54.1609 338.804 54.1609C335.978 54.1469 333.431 53.4893 331.165 52.2021ZM345.562 35.5662C345.492 34.6708 345.17 33.7893 344.583 32.9218C344.009 32.0404 343.197 31.3268 342.176 30.7391C341.155 30.1655 339.951 29.8717 338.58 29.8717C336.831 29.8717 335.334 30.3894 334.089 31.4107C332.844 32.4321 331.934 33.8173 331.389 35.5662H345.562Z" fill="black"/>
<path d="M366.437 13.3057H374.804L380.274 35.734L380.946 39.9175H381.394L382.289 35.734L389.313 13.3057H396.728L403.598 35.734L404.494 39.8055H404.941L405.613 35.734L411.028 13.3057H419.395L409.069 53.2653H400.982L394.168 29.158L393.273 24.8626H392.825L391.929 29.158L384.78 53.2653H377.028L366.437 13.3057Z" fill="black"/>
<path d="M426.363 52.2021C424.096 50.9009 422.319 49.096 421.032 46.8154C419.745 44.5347 419.101 41.9603 419.101 39.0921C419.101 36.3777 419.731 33.8592 421.004 31.5367C422.263 29.2141 424.012 27.3672 426.251 25.982C428.475 24.6109 430.98 23.9253 433.722 23.9253C436.66 23.9253 439.193 24.5549 441.306 25.8141C443.432 27.0734 445.041 28.8083 446.133 31.005C447.224 33.2016 447.784 35.6362 447.784 38.3085C447.784 39.162 447.728 39.9875 447.616 40.771H426.237C426.615 43.0377 427.51 44.7586 428.937 45.9339C430.364 47.1092 432.085 47.6968 434.1 47.6968C435.779 47.6968 437.22 47.333 438.423 46.6055C439.627 45.8779 440.592 44.8985 441.292 43.6813L447.21 46.5775C444.314 51.6424 439.906 54.1609 433.988 54.1609C431.19 54.1469 428.629 53.4893 426.363 52.2021ZM440.76 35.5662C440.69 34.6708 440.368 33.7893 439.78 32.9218C439.207 32.0404 438.395 31.3268 437.374 30.7391C436.353 30.1655 435.149 29.8717 433.778 29.8717C432.029 29.8717 430.532 30.3894 429.287 31.4107C428.042 32.4321 427.132 33.8173 426.587 35.5662H440.76Z" fill="black"/>
<path d="M464.111 52.9156C462.6 52.0901 461.481 51.0687 460.739 49.8514H460.292V53.2513H453.422V13.3057H460.739V24.247L460.292 28.2626H460.739C461.523 27.0313 462.656 26.0099 464.139 25.1564C465.622 24.317 467.343 23.9112 469.274 23.9112C471.835 23.9112 474.171 24.5548 476.27 25.842C478.369 27.1292 480.02 28.9202 481.209 31.2288C482.398 33.5373 483 36.1398 483 39.036C483 41.9742 482.412 44.5906 481.209 46.8712C480.02 49.1658 478.369 50.9428 476.27 52.23C474.171 53.5172 471.835 54.1608 469.274 54.1608C467.343 54.1468 465.622 53.7411 464.111 52.9156ZM471.849 46.3396C473.038 45.626 473.989 44.6466 474.689 43.3874C475.402 42.1281 475.752 40.673 475.752 39.036C475.752 37.399 475.402 35.9439 474.689 34.6847C473.975 33.4254 473.038 32.446 471.849 31.7604C470.659 31.0748 469.372 30.7251 468.001 30.7251C466.658 30.7251 465.398 31.0748 464.209 31.7604C463.02 32.446 462.069 33.4254 461.369 34.6847C460.655 35.9439 460.306 37.399 460.306 39.036C460.306 40.673 460.655 42.1281 461.369 43.3874C462.083 44.6466 463.02 45.64 464.209 46.3396C465.398 47.0531 466.672 47.4029 468.001 47.4029C469.372 47.3889 470.659 47.0391 471.849 46.3396Z" fill="black"/>
<path d="M104.307 93.4898H106.004L108.351 102.986L108.568 103.871H108.64L108.911 102.986L111.799 93.4898H113.388L116.15 102.986L116.421 103.871H116.493L119.039 93.4898H120.736L117.252 106.417H115.663L112.919 97.0645L112.63 96.0535H112.558L112.251 97.0645L109.398 106.417H107.809L104.307 93.4898ZM125.262 106.705C124.384 106.705 123.595 106.495 122.897 106.073C122.199 105.652 121.651 105.074 121.254 104.34C120.869 103.594 120.676 102.758 120.676 101.831C120.676 100.952 120.857 100.14 121.218 99.3935C121.591 98.6352 122.115 98.0334 122.789 97.5881C123.475 97.1428 124.257 96.9201 125.136 96.9201C126.038 96.9201 126.821 97.1247 127.483 97.5339C128.145 97.9311 128.65 98.4848 128.999 99.1949C129.36 99.905 129.541 100.717 129.541 101.632C129.541 101.777 129.529 101.933 129.505 102.102H122.211C122.247 102.8 122.416 103.389 122.717 103.871C123.017 104.352 123.397 104.713 123.854 104.954C124.323 105.195 124.811 105.315 125.316 105.315C126.52 105.315 127.429 104.762 128.042 103.654L129.342 104.286C128.957 105.02 128.422 105.61 127.736 106.055C127.049 106.489 126.225 106.705 125.262 106.705ZM127.916 100.838C127.892 100.453 127.784 100.068 127.591 99.6824C127.399 99.2972 127.098 98.9722 126.688 98.7074C126.279 98.4426 125.762 98.3102 125.136 98.3102C124.414 98.3102 123.8 98.545 123.294 99.0144C122.789 99.4717 122.458 100.08 122.301 100.838H127.916ZM135.533 97.209H136.995V98.563H137.068C137.332 98.0936 137.73 97.7024 138.259 97.3895C138.789 97.0766 139.348 96.9201 139.938 96.9201C140.612 96.9201 141.196 97.0826 141.689 97.4075C142.195 97.7325 142.556 98.1658 142.773 98.7074C143.098 98.1658 143.525 97.7325 144.055 97.4075C144.596 97.0826 145.222 96.9201 145.932 96.9201C146.991 96.9201 147.786 97.2451 148.315 97.895C148.857 98.5329 149.128 99.4055 149.128 100.513V106.417H147.611V100.748C147.611 99.893 147.437 99.2731 147.088 98.888C146.739 98.5028 146.221 98.3102 145.535 98.3102C145.078 98.3102 144.662 98.4426 144.289 98.7074C143.916 98.9722 143.621 99.3273 143.405 99.7726C143.2 100.218 143.098 100.699 143.098 101.217V106.417H141.563V100.766C141.563 99.899 141.389 99.2731 141.04 98.888C140.69 98.5028 140.179 98.3102 139.505 98.3102C139.048 98.3102 138.632 98.4487 138.259 98.7255C137.886 98.9903 137.591 99.3514 137.375 99.8087C137.17 100.254 137.068 100.736 137.068 101.253V106.417H135.533V97.209ZM154.203 106.705C153.529 106.705 152.927 106.573 152.397 106.308C151.868 106.043 151.458 105.682 151.17 105.225C150.881 104.756 150.736 104.226 150.736 103.636C150.736 102.661 151.103 101.903 151.838 101.361C152.572 100.808 153.498 100.531 154.618 100.531C155.171 100.531 155.683 100.591 156.152 100.711C156.634 100.832 157.001 100.97 157.254 101.127V100.567C157.254 99.8809 157.013 99.3333 156.532 98.9241C156.05 98.5028 155.442 98.2922 154.708 98.2922C154.203 98.2922 153.727 98.4065 153.282 98.6352C152.849 98.8519 152.506 99.1588 152.253 99.556L151.097 98.6894C151.458 98.1357 151.958 97.7024 152.596 97.3895C153.234 97.0766 153.938 96.9201 154.708 96.9201C155.96 96.9201 156.941 97.2511 157.651 97.9131C158.361 98.563 158.716 99.4537 158.716 100.585V106.417H157.254V105.099H157.181C156.917 105.544 156.52 105.923 155.99 106.236C155.46 106.549 154.865 106.705 154.203 106.705ZM154.347 105.351C154.865 105.351 155.346 105.219 155.791 104.954C156.237 104.689 156.592 104.334 156.857 103.889C157.121 103.444 157.254 102.956 157.254 102.427C156.965 102.234 156.61 102.078 156.189 101.957C155.767 101.837 155.322 101.777 154.853 101.777C154.01 101.777 153.372 101.951 152.939 102.3C152.518 102.649 152.307 103.101 152.307 103.654C152.307 104.16 152.499 104.569 152.885 104.882C153.27 105.195 153.757 105.351 154.347 105.351ZM160.851 93.4898H162.386V101.614L166.719 97.209H168.668V97.2812L165.058 100.928L168.777 106.344V106.417H166.935L163.974 101.993L162.386 103.582V106.417H160.851V93.4898ZM173.8 106.705C172.921 106.705 172.133 106.495 171.435 106.073C170.737 105.652 170.189 105.074 169.792 104.34C169.407 103.594 169.214 102.758 169.214 101.831C169.214 100.952 169.395 100.14 169.756 99.3935C170.129 98.6352 170.653 98.0334 171.327 97.5881C172.013 97.1428 172.795 96.9201 173.674 96.9201C174.576 96.9201 175.359 97.1247 176.021 97.5339C176.683 97.9311 177.188 98.4848 177.537 99.1949C177.898 99.905 178.079 100.717 178.079 101.632C178.079 101.777 178.067 101.933 178.043 102.102H170.749C170.785 102.8 170.953 103.389 171.254 103.871C171.555 104.352 171.934 104.713 172.392 104.954C172.861 105.195 173.349 105.315 173.854 105.315C175.058 105.315 175.966 104.762 176.58 103.654L177.88 104.286C177.495 105.02 176.959 105.61 176.273 106.055C175.587 106.489 174.763 106.705 173.8 106.705ZM176.454 100.838C176.43 100.453 176.321 100.068 176.129 99.6824C175.936 99.2972 175.635 98.9722 175.226 98.7074C174.817 98.4426 174.299 98.3102 173.674 98.3102C172.951 98.3102 172.338 98.545 171.832 99.0144C171.327 99.4717 170.996 100.08 170.839 100.838H176.454ZM183.999 97.209H185.461V98.5811H185.533C185.81 98.1117 186.225 97.7205 186.779 97.4075C187.345 97.0826 187.977 96.9201 188.675 96.9201C189.505 96.9201 190.251 97.1307 190.913 97.552C191.587 97.9732 192.117 98.557 192.502 99.3032C192.887 100.049 193.08 100.886 193.08 101.813C193.08 102.752 192.887 103.594 192.502 104.34C192.117 105.074 191.587 105.652 190.913 106.073C190.251 106.495 189.505 106.705 188.675 106.705C187.977 106.705 187.345 106.549 186.779 106.236C186.225 105.911 185.81 105.52 185.533 105.062H185.461L185.533 106.326V110.316H183.999V97.209ZM188.512 105.315C189.042 105.315 189.541 105.171 190.011 104.882C190.48 104.593 190.853 104.184 191.13 103.654C191.407 103.125 191.545 102.511 191.545 101.813C191.545 101.115 191.407 100.501 191.13 99.9712C190.853 99.4416 190.48 99.0324 190.011 98.7435C189.541 98.4547 189.042 98.3102 188.512 98.3102C187.971 98.3102 187.465 98.4547 186.996 98.7435C186.538 99.0324 186.165 99.4416 185.876 99.9712C185.599 100.501 185.461 101.115 185.461 101.813C185.461 102.511 185.599 103.125 185.876 103.654C186.165 104.184 186.538 104.593 186.996 104.882C187.465 105.171 187.971 105.315 188.512 105.315ZM194.773 97.209H196.235V98.6894H196.307C196.488 98.1839 196.837 97.7686 197.355 97.4437C197.872 97.1066 198.414 96.9381 198.979 96.9381C199.401 96.9381 199.762 96.9983 200.063 97.1187V98.7797C199.677 98.5871 199.244 98.4908 198.763 98.4908C198.317 98.4908 197.908 98.6172 197.535 98.8699C197.162 99.1227 196.861 99.4657 196.632 99.899C196.416 100.32 196.307 100.778 196.307 101.271V106.417H194.773V97.209ZM205.239 106.705C204.336 106.705 203.524 106.489 202.802 106.055C202.08 105.622 201.514 105.032 201.105 104.286C200.708 103.54 200.509 102.715 200.509 101.813C200.509 100.91 200.708 100.086 201.105 99.3393C201.514 98.5931 202.08 98.0033 202.802 97.57C203.524 97.1367 204.336 96.9201 205.239 96.9201C206.142 96.9201 206.954 97.1367 207.676 97.57C208.399 98.0033 208.958 98.5931 209.355 99.3393C209.765 100.086 209.969 100.91 209.969 101.813C209.969 102.715 209.765 103.54 209.355 104.286C208.958 105.032 208.399 105.622 207.676 106.055C206.954 106.489 206.142 106.705 205.239 106.705ZM205.239 105.315C205.805 105.315 206.328 105.177 206.81 104.9C207.303 104.611 207.695 104.202 207.983 103.672C208.284 103.143 208.435 102.523 208.435 101.813C208.435 101.103 208.284 100.483 207.983 99.9532C207.695 99.4236 207.303 99.0204 206.81 98.7435C206.328 98.4547 205.805 98.3102 205.239 98.3102C204.673 98.3102 204.144 98.4547 203.65 98.7435C203.157 99.0204 202.76 99.4236 202.459 99.9532C202.17 100.483 202.026 101.103 202.026 101.813C202.026 102.523 202.17 103.143 202.459 103.672C202.76 104.202 203.157 104.611 203.65 104.9C204.144 105.177 204.673 105.315 205.239 105.315ZM215.669 106.705C214.839 106.705 214.086 106.495 213.412 106.073C212.75 105.652 212.227 105.074 211.842 104.34C211.456 103.594 211.264 102.752 211.264 101.813C211.264 100.886 211.456 100.049 211.842 99.3032C212.227 98.557 212.75 97.9732 213.412 97.552C214.086 97.1307 214.839 96.9201 215.669 96.9201C216.367 96.9201 216.993 97.0826 217.547 97.4075C218.1 97.7205 218.522 98.1117 218.81 98.5811H218.883L218.81 97.2992V93.4898H220.345V106.417H218.883V105.062H218.81C218.522 105.52 218.1 105.911 217.547 106.236C216.993 106.549 216.367 106.705 215.669 106.705ZM215.832 105.315C216.373 105.315 216.873 105.171 217.33 104.882C217.799 104.593 218.173 104.184 218.449 103.654C218.738 103.125 218.883 102.511 218.883 101.813C218.883 101.115 218.738 100.501 218.449 99.9712C218.173 99.4416 217.799 99.0324 217.33 98.7435C216.873 98.4547 216.373 98.3102 215.832 98.3102C215.302 98.3102 214.802 98.4547 214.333 98.7435C213.864 99.0324 213.485 99.4477 213.196 99.9893C212.919 100.519 212.78 101.127 212.78 101.813C212.78 102.499 212.919 103.113 213.196 103.654C213.485 104.184 213.864 104.593 214.333 104.882C214.802 105.171 215.302 105.315 215.832 105.315ZM225.952 106.705C224.845 106.705 223.996 106.38 223.406 105.73C222.829 105.081 222.54 104.172 222.54 103.004V97.209H224.074V102.77C224.074 103.648 224.273 104.292 224.67 104.701C225.067 105.111 225.603 105.315 226.277 105.315C226.794 105.315 227.252 105.177 227.649 104.9C228.058 104.623 228.371 104.262 228.588 103.817C228.817 103.371 228.931 102.902 228.931 102.409V97.209H230.465V106.417H229.003V105.081H228.931C228.678 105.538 228.275 105.923 227.721 106.236C227.168 106.549 226.578 106.705 225.952 106.705ZM236.814 106.705C235.924 106.705 235.123 106.495 234.413 106.073C233.703 105.64 233.149 105.056 232.752 104.322C232.355 103.576 232.156 102.74 232.156 101.813C232.156 100.886 232.355 100.049 232.752 99.3032C233.149 98.557 233.703 97.9732 234.413 97.552C235.123 97.1307 235.924 96.9201 236.814 96.9201C237.813 96.9201 238.65 97.1548 239.324 97.6242C240.01 98.0816 240.497 98.6954 240.786 99.4657L239.396 100.043C239.167 99.4777 238.824 99.0505 238.367 98.7616C237.922 98.4607 237.38 98.3102 236.742 98.3102C236.201 98.3102 235.695 98.4607 235.226 98.7616C234.756 99.0505 234.377 99.4597 234.088 99.9893C233.811 100.519 233.673 101.127 233.673 101.813C233.673 102.499 233.811 103.107 234.088 103.636C234.377 104.166 234.756 104.581 235.226 104.882C235.695 105.171 236.201 105.315 236.742 105.315C237.392 105.315 237.952 105.165 238.421 104.864C238.891 104.563 239.24 104.136 239.468 103.582L240.84 104.16C240.527 104.918 240.022 105.532 239.324 106.001C238.638 106.471 237.801 106.705 236.814 106.705ZM245.95 106.561C245.577 106.561 245.228 106.501 244.903 106.38C244.59 106.26 244.325 106.098 244.108 105.893C243.627 105.436 243.386 104.804 243.386 103.997V98.5991H241.78V97.209H243.386V94.6092H244.921V97.209H247.178V98.5991H244.921V103.618C244.921 104.124 245.017 104.497 245.21 104.737C245.438 105.002 245.769 105.135 246.203 105.135C246.576 105.135 246.913 105.032 247.214 104.828V106.326C247.033 106.41 246.847 106.471 246.654 106.507C246.474 106.543 246.239 106.561 245.95 106.561ZM252.413 106.705C251.426 106.705 250.601 106.477 249.94 106.019C249.278 105.55 248.808 104.954 248.531 104.232L249.903 103.618C250.132 104.172 250.469 104.599 250.914 104.9C251.372 105.201 251.871 105.351 252.413 105.351C252.991 105.351 253.484 105.237 253.893 105.008C254.303 104.768 254.507 104.431 254.507 103.997C254.507 103.612 254.345 103.305 254.02 103.077C253.695 102.836 253.183 102.631 252.485 102.463L251.366 102.174C250.632 101.993 250.03 101.686 249.56 101.253C249.091 100.82 248.856 100.26 248.856 99.574C248.856 99.0444 249.013 98.5811 249.326 98.1839C249.651 97.7746 250.078 97.4617 250.608 97.2451C251.137 97.0284 251.709 96.9201 252.323 96.9201C253.129 96.9201 253.845 97.0946 254.471 97.4437C255.109 97.7927 255.56 98.2802 255.825 98.906L254.489 99.5199C254.08 98.7014 253.352 98.2922 252.305 98.2922C251.799 98.2922 251.354 98.4126 250.969 98.6533C250.595 98.882 250.409 99.1768 250.409 99.5379C250.409 99.8749 250.541 100.152 250.806 100.368C251.071 100.573 251.468 100.742 251.998 100.874L253.334 101.217C254.236 101.446 254.916 101.789 255.374 102.246C255.831 102.691 256.06 103.239 256.06 103.889C256.06 104.455 255.897 104.954 255.572 105.387C255.247 105.809 254.808 106.134 254.254 106.362C253.701 106.591 253.087 106.705 252.413 106.705ZM265.467 106.561C265.094 106.561 264.745 106.501 264.42 106.38C264.107 106.26 263.843 106.098 263.626 105.893C263.144 105.436 262.904 104.804 262.904 103.997V98.5991H261.297V97.209H262.904V94.6092H264.438V97.209H266.695V98.5991H264.438V103.618C264.438 104.124 264.535 104.497 264.727 104.737C264.956 105.002 265.287 105.135 265.72 105.135C266.093 105.135 266.43 105.032 266.731 104.828V106.326C266.551 106.41 266.364 106.471 266.171 106.507C265.991 106.543 265.756 106.561 265.467 106.561ZM268.629 93.4898H270.163V97.2992L270.091 98.563H270.163C270.416 98.0936 270.813 97.7024 271.355 97.3895C271.908 97.0766 272.51 96.9201 273.16 96.9201C274.279 96.9201 275.134 97.2511 275.724 97.9131C276.314 98.563 276.608 99.4296 276.608 100.513V106.417H275.074V100.748C275.074 99.9171 274.863 99.3032 274.442 98.906C274.021 98.5088 273.473 98.3102 272.799 98.3102C272.318 98.3102 271.872 98.4547 271.463 98.7435C271.066 99.0324 270.747 99.4055 270.506 99.8629C270.277 100.32 270.163 100.796 270.163 101.289V106.417H268.629V93.4898ZM281.674 106.705C281 106.705 280.398 106.573 279.868 106.308C279.339 106.043 278.93 105.682 278.641 105.225C278.352 104.756 278.207 104.226 278.207 103.636C278.207 102.661 278.575 101.903 279.309 101.361C280.043 100.808 280.97 100.531 282.089 100.531C282.643 100.531 283.154 100.591 283.624 100.711C284.105 100.832 284.472 100.97 284.725 101.127V100.567C284.725 99.8809 284.484 99.3333 284.003 98.9241C283.521 98.5028 282.914 98.2922 282.179 98.2922C281.674 98.2922 281.198 98.4065 280.753 98.6352C280.32 98.8519 279.977 99.1588 279.724 99.556L278.569 98.6894C278.93 98.1357 279.429 97.7024 280.067 97.3895C280.705 97.0766 281.409 96.9201 282.179 96.9201C283.431 96.9201 284.412 97.2511 285.122 97.9131C285.832 98.563 286.187 99.4537 286.187 100.585V106.417H284.725V105.099H284.653C284.388 105.544 283.991 105.923 283.461 106.236C282.932 106.549 282.336 106.705 281.674 106.705ZM281.818 105.351C282.336 105.351 282.817 105.219 283.263 104.954C283.708 104.689 284.063 104.334 284.328 103.889C284.593 103.444 284.725 102.956 284.725 102.427C284.436 102.234 284.081 102.078 283.66 101.957C283.239 101.837 282.793 101.777 282.324 101.777C281.481 101.777 280.843 101.951 280.41 102.3C279.989 102.649 279.778 103.101 279.778 103.654C279.778 104.16 279.971 104.569 280.356 104.882C280.741 105.195 281.228 105.351 281.818 105.351ZM291.684 106.561C291.311 106.561 290.962 106.501 290.637 106.38C290.324 106.26 290.06 106.098 289.843 105.893C289.362 105.436 289.121 104.804 289.121 103.997V98.5991H287.514V97.209H289.121V94.6092H290.655V97.209H292.912V98.5991H290.655V103.618C290.655 104.124 290.752 104.497 290.944 104.737C291.173 105.002 291.504 105.135 291.937 105.135C292.31 105.135 292.647 105.032 292.948 104.828V106.326C292.768 106.41 292.581 106.471 292.389 106.507C292.208 106.543 291.973 106.561 291.684 106.561ZM298.954 97.209H300.416V98.563H300.488C300.753 98.0936 301.15 97.7024 301.68 97.3895C302.209 97.0766 302.769 96.9201 303.359 96.9201C304.033 96.9201 304.617 97.0826 305.11 97.4075C305.616 97.7325 305.977 98.1658 306.193 98.7074C306.518 98.1658 306.946 97.7325 307.475 97.4075C308.017 97.0826 308.643 96.9201 309.353 96.9201C310.412 96.9201 311.206 97.2451 311.736 97.895C312.277 98.5329 312.548 99.4055 312.548 100.513V106.417H311.032V100.748C311.032 99.893 310.857 99.2731 310.508 98.888C310.159 98.5028 309.642 98.3102 308.956 98.3102C308.498 98.3102 308.083 98.4426 307.71 98.7074C307.337 98.9722 307.042 99.3273 306.825 99.7726C306.621 100.218 306.518 100.699 306.518 101.217V106.417H304.984V100.766C304.984 99.899 304.809 99.2731 304.46 98.888C304.111 98.5028 303.6 98.3102 302.926 98.3102C302.468 98.3102 302.053 98.4487 301.68 98.7255C301.307 98.9903 301.012 99.3514 300.795 99.8087C300.591 100.254 300.488 100.736 300.488 101.253V106.417H298.954V97.209ZM317.623 106.705C316.949 106.705 316.347 106.573 315.818 106.308C315.288 106.043 314.879 105.682 314.59 105.225C314.301 104.756 314.157 104.226 314.157 103.636C314.157 102.661 314.524 101.903 315.258 101.361C315.992 100.808 316.919 100.531 318.038 100.531C318.592 100.531 319.104 100.591 319.573 100.711C320.054 100.832 320.422 100.97 320.674 101.127V100.567C320.674 99.8809 320.434 99.3333 319.952 98.9241C319.471 98.5028 318.863 98.2922 318.129 98.2922C317.623 98.2922 317.148 98.4065 316.702 98.6352C316.269 98.8519 315.926 99.1588 315.673 99.556L314.518 98.6894C314.879 98.1357 315.378 97.7024 316.016 97.3895C316.654 97.0766 317.358 96.9201 318.129 96.9201C319.38 96.9201 320.361 97.2511 321.071 97.9131C321.782 98.563 322.137 99.4537 322.137 100.585V106.417H320.674V105.099H320.602C320.337 105.544 319.94 105.923 319.411 106.236C318.881 106.549 318.285 106.705 317.623 106.705ZM317.768 105.351C318.285 105.351 318.767 105.219 319.212 104.954C319.657 104.689 320.012 104.334 320.277 103.889C320.542 103.444 320.674 102.956 320.674 102.427C320.385 102.234 320.03 102.078 319.609 101.957C319.188 101.837 318.743 101.777 318.273 101.777C317.431 101.777 316.793 101.951 316.359 102.3C315.938 102.649 315.728 103.101 315.728 103.654C315.728 104.16 315.92 104.569 316.305 104.882C316.69 105.195 317.178 105.351 317.768 105.351ZM324.272 93.4898H325.806V101.614L330.139 97.209H332.089V97.2812L328.478 100.928L332.197 106.344V106.417H330.356L327.395 101.993L325.806 103.582V106.417H324.272V93.4898ZM337.221 106.705C336.342 106.705 335.554 106.495 334.855 106.073C334.157 105.652 333.61 105.074 333.213 104.34C332.827 103.594 332.635 102.758 332.635 101.831C332.635 100.952 332.815 100.14 333.176 99.3935C333.55 98.6352 334.073 98.0334 334.747 97.5881C335.433 97.1428 336.216 96.9201 337.094 96.9201C337.997 96.9201 338.779 97.1247 339.441 97.5339C340.103 97.9311 340.609 98.4848 340.958 99.1949C341.319 99.905 341.499 100.717 341.499 101.632C341.499 101.777 341.487 101.933 341.463 102.102H334.169C334.206 102.8 334.374 103.389 334.675 103.871C334.976 104.352 335.355 104.713 335.812 104.954C336.282 105.195 336.769 105.315 337.275 105.315C338.478 105.315 339.387 104.762 340.001 103.654L341.301 104.286C340.916 105.02 340.38 105.61 339.694 106.055C339.008 106.489 338.183 106.705 337.221 106.705ZM339.874 100.838C339.85 100.453 339.742 100.068 339.549 99.6824C339.357 99.2972 339.056 98.9722 338.647 98.7074C338.238 98.4426 337.72 98.3102 337.094 98.3102C336.372 98.3102 335.758 98.545 335.253 99.0144C334.747 99.4717 334.416 100.08 334.26 100.838H339.874ZM347.419 97.209H348.882V98.5811H348.954C349.231 98.1117 349.646 97.7205 350.2 97.4075C350.765 97.0826 351.397 96.9201 352.095 96.9201C352.926 96.9201 353.672 97.1307 354.334 97.552C355.008 97.9732 355.538 98.557 355.923 99.3032C356.308 100.049 356.5 100.886 356.5 101.813C356.5 102.752 356.308 103.594 355.923 104.34C355.538 105.074 355.008 105.652 354.334 106.073C353.672 106.495 352.926 106.705 352.095 106.705C351.397 106.705 350.765 106.549 350.2 106.236C349.646 105.911 349.231 105.52 348.954 105.062H348.882L348.954 106.326V110.316H347.419V97.209ZM351.933 105.315C352.462 105.315 352.962 105.171 353.431 104.882C353.901 104.593 354.274 104.184 354.551 103.654C354.827 103.125 354.966 102.511 354.966 101.813C354.966 101.115 354.827 100.501 354.551 99.9712C354.274 99.4416 353.901 99.0324 353.431 98.7435C352.962 98.4547 352.462 98.3102 351.933 98.3102C351.391 98.3102 350.886 98.4547 350.416 98.7435C349.959 99.0324 349.586 99.4416 349.297 99.9712C349.02 100.501 348.882 101.115 348.882 101.813C348.882 102.511 349.02 103.125 349.297 103.654C349.586 104.184 349.959 104.593 350.416 104.882C350.886 105.171 351.391 105.315 351.933 105.315ZM362.38 106.705C361.501 106.705 360.713 106.495 360.015 106.073C359.317 105.652 358.769 105.074 358.372 104.34C357.987 103.594 357.794 102.758 357.794 101.831C357.794 100.952 357.975 100.14 358.336 99.3935C358.709 98.6352 359.232 98.0334 359.906 97.5881C360.592 97.1428 361.375 96.9201 362.253 96.9201C363.156 96.9201 363.938 97.1247 364.6 97.5339C365.262 97.9311 365.768 98.4848 366.117 99.1949C366.478 99.905 366.659 100.717 366.659 101.632C366.659 101.777 366.647 101.933 366.622 102.102H359.329C359.365 102.8 359.533 103.389 359.834 103.871C360.135 104.352 360.514 104.713 360.972 104.954C361.441 105.195 361.928 105.315 362.434 105.315C363.638 105.315 364.546 104.762 365.16 103.654L366.46 104.286C366.075 105.02 365.539 105.61 364.853 106.055C364.167 106.489 363.343 106.705 362.38 106.705ZM365.034 100.838C365.01 100.453 364.901 100.068 364.709 99.6824C364.516 99.2972 364.215 98.9722 363.806 98.7074C363.397 98.4426 362.879 98.3102 362.253 98.3102C361.531 98.3102 360.917 98.545 360.412 99.0144C359.906 99.4717 359.575 100.08 359.419 100.838H365.034ZM372.785 106.705C371.883 106.705 371.07 106.489 370.348 106.055C369.626 105.622 369.06 105.032 368.651 104.286C368.254 103.54 368.055 102.715 368.055 101.813C368.055 100.91 368.254 100.086 368.651 99.3393C369.06 98.5931 369.626 98.0033 370.348 97.57C371.07 97.1367 371.883 96.9201 372.785 96.9201C373.688 96.9201 374.501 97.1367 375.223 97.57C375.945 98.0033 376.505 98.5931 376.902 99.3393C377.311 100.086 377.516 100.91 377.516 101.813C377.516 102.715 377.311 103.54 376.902 104.286C376.505 105.032 375.945 105.622 375.223 106.055C374.501 106.489 373.688 106.705 372.785 106.705ZM372.785 105.315C373.351 105.315 373.875 105.177 374.356 104.9C374.85 104.611 375.241 104.202 375.53 103.672C375.831 103.143 375.981 102.523 375.981 101.813C375.981 101.103 375.831 100.483 375.53 99.9532C375.241 99.4236 374.85 99.0204 374.356 98.7435C373.875 98.4547 373.351 98.3102 372.785 98.3102C372.22 98.3102 371.69 98.4547 371.197 98.7435C370.703 99.0204 370.306 99.4236 370.005 99.9532C369.716 100.483 369.572 101.103 369.572 101.813C369.572 102.523 369.716 103.143 370.005 103.672C370.306 104.202 370.703 104.611 371.197 104.9C371.69 105.177 372.22 105.315 372.785 105.315ZM379.137 97.209H380.6V98.5811H380.672C380.949 98.1117 381.364 97.7205 381.917 97.4075C382.483 97.0826 383.115 96.9201 383.813 96.9201C384.644 96.9201 385.39 97.1307 386.052 97.552C386.726 97.9732 387.255 98.557 387.641 99.3032C388.026 100.049 388.218 100.886 388.218 101.813C388.218 102.752 388.026 103.594 387.641 104.34C387.255 105.074 386.726 105.652 386.052 106.073C385.39 106.495 384.644 106.705 383.813 106.705C383.115 106.705 382.483 106.549 381.917 106.236C381.364 105.911 380.949 105.52 380.672 105.062H380.6L380.672 106.326V110.316H379.137V97.209ZM383.651 105.315C384.18 105.315 384.68 105.171 385.149 104.882C385.619 104.593 385.992 104.184 386.269 103.654C386.545 103.125 386.684 102.511 386.684 101.813C386.684 101.115 386.545 100.501 386.269 99.9712C385.992 99.4416 385.619 99.0324 385.149 98.7435C384.68 98.4547 384.18 98.3102 383.651 98.3102C383.109 98.3102 382.604 98.4547 382.134 98.7435C381.677 99.0324 381.304 99.4416 381.015 99.9712C380.738 100.501 380.6 101.115 380.6 101.813C380.6 102.511 380.738 103.125 381.015 103.654C381.304 104.184 381.677 104.593 382.134 104.882C382.604 105.171 383.109 105.315 383.651 105.315ZM389.823 93.4898H391.358V106.417H389.823V93.4898ZM397.642 106.705C396.763 106.705 395.975 106.495 395.276 106.073C394.578 105.652 394.031 105.074 393.634 104.34C393.248 103.594 393.056 102.758 393.056 101.831C393.056 100.952 393.236 100.14 393.597 99.3935C393.971 98.6352 394.494 98.0334 395.168 97.5881C395.854 97.1428 396.637 96.9201 397.515 96.9201C398.418 96.9201 399.2 97.1247 399.862 97.5339C400.524 97.9311 401.03 98.4848 401.379 99.1949C401.74 99.905 401.92 100.717 401.92 101.632C401.92 101.777 401.908 101.933 401.884 102.102H394.59C394.627 102.8 394.795 103.389 395.096 103.871C395.397 104.352 395.776 104.713 396.233 104.954C396.703 105.195 397.19 105.315 397.696 105.315C398.899 105.315 399.808 104.762 400.422 103.654L401.722 104.286C401.337 105.02 400.801 105.61 400.115 106.055C399.429 106.489 398.604 106.705 397.642 106.705ZM400.295 100.838C400.271 100.453 400.163 100.068 399.971 99.6824C399.778 99.2972 399.477 98.9722 399.068 98.7074C398.659 98.4426 398.141 98.3102 397.515 98.3102C396.793 98.3102 396.179 98.545 395.674 99.0144C395.168 99.4717 394.837 100.08 394.681 100.838H400.295ZM411.126 106.705C410.139 106.705 409.315 106.477 408.653 106.019C407.991 105.55 407.521 104.954 407.244 104.232L408.617 103.618C408.845 104.172 409.182 104.599 409.628 104.9C410.085 105.201 410.584 105.351 411.126 105.351C411.704 105.351 412.197 105.237 412.607 105.008C413.016 104.768 413.22 104.431 413.22 103.997C413.22 103.612 413.058 103.305 412.733 103.077C412.408 102.836 411.896 102.631 411.198 102.463L410.079 102.174C409.345 101.993 408.743 101.686 408.274 101.253C407.804 100.82 407.569 100.26 407.569 99.574C407.569 99.0444 407.726 98.5811 408.039 98.1839C408.364 97.7746 408.791 97.4617 409.321 97.2451C409.85 97.0284 410.422 96.9201 411.036 96.9201C411.842 96.9201 412.558 97.0946 413.184 97.4437C413.822 97.7927 414.273 98.2802 414.538 98.906L413.202 99.5199C412.793 98.7014 412.065 98.2922 411.018 98.2922C410.512 98.2922 410.067 98.4126 409.682 98.6533C409.309 98.882 409.122 99.1768 409.122 99.5379C409.122 99.8749 409.254 100.152 409.519 100.368C409.784 100.573 410.181 100.742 410.711 100.874L412.047 101.217C412.95 101.446 413.63 101.789 414.087 102.246C414.544 102.691 414.773 103.239 414.773 103.889C414.773 104.455 414.61 104.954 414.286 105.387C413.961 105.809 413.521 106.134 412.968 106.362C412.414 106.591 411.8 106.705 411.126 106.705ZM419.477 106.705C418.803 106.705 418.201 106.573 417.671 106.308C417.142 106.043 416.733 105.682 416.444 105.225C416.155 104.756 416.01 104.226 416.01 103.636C416.01 102.661 416.377 101.903 417.112 101.361C417.846 100.808 418.773 100.531 419.892 100.531C420.446 100.531 420.957 100.591 421.427 100.711C421.908 100.832 422.275 100.97 422.528 101.127V100.567C422.528 99.8809 422.287 99.3333 421.806 98.9241C421.324 98.5028 420.716 98.2922 419.982 98.2922C419.477 98.2922 419.001 98.4065 418.556 98.6352C418.123 98.8519 417.78 99.1588 417.527 99.556L416.371 98.6894C416.733 98.1357 417.232 97.7024 417.87 97.3895C418.508 97.0766 419.212 96.9201 419.982 96.9201C421.234 96.9201 422.215 97.2511 422.925 97.9131C423.635 98.563 423.99 99.4537 423.99 100.585V106.417H422.528V105.099H422.456C422.191 105.544 421.794 105.923 421.264 106.236C420.735 106.549 420.139 106.705 419.477 106.705ZM419.621 105.351C420.139 105.351 420.62 105.219 421.066 104.954C421.511 104.689 421.866 104.334 422.131 103.889C422.395 103.444 422.528 102.956 422.528 102.427C422.239 102.234 421.884 102.078 421.463 101.957C421.041 101.837 420.596 101.777 420.127 101.777C419.284 101.777 418.646 101.951 418.213 102.3C417.792 102.649 417.581 103.101 417.581 103.654C417.581 104.16 417.774 104.569 418.159 104.882C418.544 105.195 419.031 105.351 419.621 105.351ZM428.765 105.839L424.956 97.209H426.617L429.505 104.051H429.542L432.322 97.209H433.983L428.296 110.316H426.707L428.765 105.839ZM437.901 93.4898H439.598L441.945 102.986L442.161 103.871H442.234L442.505 102.986L445.393 93.4898H446.982L449.744 102.986L450.015 103.871H450.087L452.633 93.4898H454.33L450.845 106.417H449.257L446.512 97.0645L446.224 96.0535H446.151L445.844 97.0645L442.992 106.417H441.403L437.901 93.4898ZM459 106.705C458.098 106.705 457.285 106.489 456.563 106.055C455.841 105.622 455.275 105.032 454.866 104.286C454.469 103.54 454.27 102.715 454.27 101.813C454.27 100.91 454.469 100.086 454.866 99.3393C455.275 98.5931 455.841 98.0033 456.563 97.57C457.285 97.1367 458.098 96.9201 459 96.9201C459.903 96.9201 460.716 97.1367 461.438 97.57C462.16 98.0033 462.72 98.5931 463.117 99.3393C463.526 100.086 463.731 100.91 463.731 101.813C463.731 102.715 463.526 103.54 463.117 104.286C462.72 105.032 462.16 105.622 461.438 106.055C460.716 106.489 459.903 106.705 459 106.705ZM459 105.315C459.566 105.315 460.09 105.177 460.571 104.9C461.065 104.611 461.456 104.202 461.745 103.672C462.046 103.143 462.196 102.523 462.196 101.813C462.196 101.103 462.046 100.483 461.745 99.9532C461.456 99.4236 461.065 99.0204 460.571 98.7435C460.09 98.4547 459.566 98.3102 459 98.3102C458.435 98.3102 457.905 98.4547 457.412 98.7435C456.918 99.0204 456.521 99.4236 456.22 99.9532C455.931 100.483 455.787 101.103 455.787 101.813C455.787 102.523 455.931 103.143 456.22 103.672C456.521 104.202 456.918 104.611 457.412 104.9C457.905 105.177 458.435 105.315 459 105.315ZM464.325 97.209H465.914L468.098 104.485H468.117L470.446 97.209H472.016L474.345 104.467H474.363L476.548 97.209H478.1L475.122 106.417H473.569L471.186 99.0685L468.821 106.417H467.286L464.325 97.209ZM479.623 97.877V93.4898H481.14V97.877L480.959 102.607H479.786L479.623 97.877ZM480.381 106.525C480.056 106.525 479.78 106.417 479.551 106.2C479.334 105.971 479.226 105.694 479.226 105.369C479.226 105.056 479.334 104.792 479.551 104.575C479.78 104.346 480.056 104.232 480.381 104.232C480.706 104.232 480.977 104.346 481.194 104.575C481.423 104.792 481.537 105.056 481.537 105.369C481.537 105.694 481.423 105.971 481.194 106.2C480.977 106.417 480.706 106.525 480.381 106.525Z" fill="black"/>
</svg>
