<svg width="226" height="32" viewBox="0 0 226 32" fill="none" xmlns="http://www.w3.org/2000/svg">
<path d="M5.32998 16.5128L5.39387 6.71875C0.262639 9.65271 -1.51733 16.1892 1.41662 21.3204C2.82611 23.786 5.15541 25.5915 7.89774 26.3367L8.58332 17.9862L5.32998 16.5128Z" fill="#F99E24"/>
<path d="M16.3846 6.92285L12.0497 13.5445L17.6195 14.3237L8.12354 26.3917C13.8552 27.831 19.672 24.352 21.1113 18.6203C22.244 14.1066 20.332 9.37988 16.3846 6.92285Z" fill="#F99E24"/>
<path d="M31.0173 9.33203H33.3083V21.4937H31.0173V9.33203Z" fill="black"/>
<path d="M35.7739 12.8278H37.8647V13.9137H38.001C38.2735 13.4964 38.6397 13.1642 39.0954 12.9215C39.5553 12.6788 40.0663 12.5596 40.6326 12.5596C41.2458 12.5596 41.7781 12.7044 42.2295 12.9939C42.6809 13.2835 43.0045 13.6454 43.1961 14.0883C43.4772 13.6369 43.8647 13.2664 44.3586 12.9854C44.8526 12.7044 45.4317 12.5596 46.1003 12.5596C47.0839 12.5596 47.8334 12.8619 48.3529 13.4666C48.8681 14.0713 49.1279 14.8888 49.1279 15.9194V21.4892H46.9178V16.3281C46.9178 15.7831 46.7901 15.3658 46.5346 15.072C46.2791 14.7781 45.9257 14.6291 45.4743 14.6291C44.8952 14.6291 44.4353 14.859 44.0903 15.3147C43.7454 15.7746 43.5708 16.375 43.5708 17.1244V21.4892H41.3438V16.3281C41.3438 15.7831 41.2117 15.3658 40.9435 15.072C40.6752 14.7781 40.3005 14.6291 39.815 14.6291C39.27 14.6291 38.8314 14.859 38.4992 15.3147C38.1671 15.7746 37.9967 16.375 37.9967 17.1244V21.4892H35.7739V12.8278Z" fill="black"/>
<path d="M51.1802 12.8282H53.271V13.88H53.4073C53.6457 13.5053 53.9906 13.1944 54.442 12.9347C54.8934 12.6792 55.4172 12.5557 56.0048 12.5557C56.7883 12.5557 57.4952 12.7515 58.1382 13.1433C58.7769 13.5351 59.2794 14.0801 59.6414 14.7827C60.0033 15.4854 60.1864 16.2774 60.1864 17.1589C60.1864 18.0531 60.0033 18.8494 59.6414 19.5435C59.2794 20.2419 58.7769 20.7827 58.1382 21.1744C57.4995 21.5662 56.7883 21.7621 56.0048 21.7621C55.4172 21.7621 54.8934 21.6386 54.4335 21.3873C53.9736 21.1361 53.6329 20.8252 53.4073 20.4548H53.271L53.4073 21.6769V25.1602H51.1802V12.8282ZM56.7841 19.3859C57.146 19.1688 57.4356 18.8707 57.6485 18.4874C57.8614 18.1042 57.9721 17.6613 57.9721 17.1631C57.9721 16.6649 57.8657 16.222 57.6485 15.8388C57.4313 15.4556 57.146 15.1575 56.7841 14.9488C56.4221 14.7402 56.0304 14.6337 55.613 14.6337C55.2043 14.6337 54.821 14.7402 54.4591 14.9488C54.0971 15.1575 53.8075 15.4556 53.5946 15.8388C53.3774 16.222 53.271 16.6649 53.271 17.1631C53.271 17.6613 53.3774 18.1042 53.5946 18.4874C53.8118 18.8707 54.0971 19.173 54.4591 19.3859C54.821 19.6031 55.2085 19.7096 55.613 19.7096C56.0304 19.7053 56.4221 19.5989 56.7841 19.3859Z" fill="black"/>
<path d="M62.5585 20.7954C62.0134 20.1524 61.7451 19.2496 61.7451 18.0956V12.8281H63.9722V17.8231C63.9722 18.4107 64.1127 18.8749 64.398 19.207C64.6791 19.5392 65.0538 19.7095 65.518 19.7095C66.1524 19.7095 66.6549 19.4753 67.0296 19.0111C67.4044 18.547 67.5917 17.9594 67.5917 17.244V12.8281H69.8146V21.4895H67.7237V20.4036H67.5875C67.3277 20.8209 66.9615 21.1531 66.4931 21.3958C66.0247 21.6385 65.5052 21.762 64.9388 21.762C63.8955 21.762 63.1035 21.4384 62.5585 20.7954Z" fill="black"/>
<path d="M71.9861 9.33203H74.2132V21.4937H71.9861V9.33203Z" fill="black"/>
<path d="M77.0537 21.1191C76.4022 20.689 75.9465 20.1269 75.6868 19.437L77.6754 18.5726C77.8585 18.9814 78.114 19.288 78.4504 19.4967C78.7825 19.7053 79.17 19.8118 79.6129 19.8118C80.0217 19.8118 80.3624 19.7479 80.6306 19.6159C80.9032 19.4839 81.0394 19.271 81.0394 18.9772C81.0394 18.6961 80.9159 18.4832 80.6647 18.3384C80.4135 18.1979 80.043 18.0701 79.5448 17.9552L78.527 17.7337C77.8244 17.5634 77.241 17.2568 76.7769 16.8097C76.3127 16.3626 76.0828 15.8047 76.0828 15.1362C76.0828 14.638 76.2318 14.1908 76.5342 13.7948C76.8322 13.3988 77.241 13.0922 77.7563 12.8793C78.2715 12.6621 78.8422 12.5557 79.4639 12.5557C81.2523 12.5557 82.4489 13.1816 83.0493 14.4421L81.1459 15.2724C80.8052 14.6635 80.2644 14.3569 79.515 14.3569C79.1317 14.3569 78.8251 14.4293 78.5994 14.5698C78.3737 14.7104 78.2588 14.8892 78.2588 15.1064C78.2588 15.5152 78.642 15.8218 79.4128 16.0219L80.686 16.3285C81.5462 16.5414 82.1934 16.8693 82.632 17.3122C83.0664 17.755 83.2835 18.2958 83.2835 18.9431C83.2835 19.5009 83.1217 19.9864 82.7981 20.4122C82.4745 20.838 82.0316 21.1702 81.4738 21.4044C80.9117 21.6428 80.2942 21.7621 79.6129 21.7621C78.5568 21.7621 77.7052 21.5449 77.0537 21.1191Z" fill="black"/>
<path d="M85.0464 11.4521C84.7654 11.171 84.6206 10.8304 84.6206 10.4343C84.6206 10.0383 84.7611 9.70191 85.0464 9.42512C85.3275 9.14834 85.6681 9.00781 86.0642 9.00781C86.4602 9.00781 86.7966 9.14408 87.0734 9.42512C87.3502 9.70191 87.4907 10.0383 87.4907 10.4343C87.4907 10.8304 87.3502 11.171 87.0734 11.4521C86.7966 11.7331 86.4602 11.8779 86.0642 11.8779C85.6681 11.8779 85.3275 11.7374 85.0464 11.4521ZM84.9442 12.8275H87.1671V21.4888H84.9442V12.8275Z" fill="black"/>
<path d="M88.5254 12.8281H91.0548L93.2436 18.4661H93.3798L95.6027 12.8281H98.098L94.3933 21.4895H92.1833L88.5254 12.8281Z" fill="black"/>
<path d="M100.789 21.1704C100.1 20.7744 99.5588 20.2251 99.167 19.531C98.7752 18.8369 98.5793 18.0534 98.5793 17.1804C98.5793 16.3543 98.771 15.5878 99.1585 14.881C99.5417 14.1741 100.074 13.612 100.755 13.1904C101.432 12.7731 102.195 12.5645 103.029 12.5645C103.923 12.5645 104.694 12.7561 105.337 13.1393C105.985 13.5226 106.474 14.0506 106.806 14.7191C107.138 15.3877 107.309 16.1286 107.309 16.942C107.309 17.2017 107.292 17.453 107.258 17.6914H100.755C100.87 18.3813 101.143 18.905 101.577 19.2627C102.012 19.6204 102.535 19.7993 103.148 19.7993C103.659 19.7993 104.098 19.6886 104.464 19.4671C104.83 19.2457 105.124 18.9476 105.337 18.5771L107.138 19.4586C106.257 21.0001 104.916 21.7666 103.114 21.7666C102.254 21.7623 101.479 21.5622 100.789 21.1704ZM105.171 16.1073C105.15 15.8348 105.052 15.5665 104.873 15.3025C104.699 15.0343 104.452 14.8171 104.141 14.6382C103.83 14.4636 103.464 14.3742 103.046 14.3742C102.514 14.3742 102.058 14.5318 101.679 14.8426C101.3 15.1535 101.024 15.5751 100.858 16.1073H105.171Z" fill="black"/>
<path d="M111.524 9.33203H114.071L115.736 16.1581L115.94 17.4313H116.077L116.349 16.1581L118.487 9.33203H120.744L122.834 16.1581L123.107 17.3972H123.243L123.448 16.1581L125.096 9.33203H127.642L124.499 21.4937H122.038L119.964 14.1567L119.692 12.8494H119.556L119.283 14.1567L117.107 21.4937H114.748L111.524 9.33203Z" fill="black"/>
<path d="M129.763 21.1704C129.073 20.7744 128.532 20.2251 128.14 19.531C127.749 18.8369 127.553 18.0534 127.553 17.1804C127.553 16.3543 127.744 15.5878 128.132 14.881C128.515 14.1741 129.047 13.612 129.729 13.1904C130.406 12.7731 131.168 12.5645 132.003 12.5645C132.897 12.5645 133.668 12.7561 134.311 13.1393C134.958 13.5226 135.448 14.0506 135.78 14.7191C136.112 15.3877 136.282 16.1286 136.282 16.942C136.282 17.2017 136.265 17.453 136.231 17.6914H129.724C129.839 18.3813 130.112 18.905 130.546 19.2627C130.981 19.6204 131.504 19.7993 132.118 19.7993C132.629 19.7993 133.067 19.6886 133.433 19.4671C133.8 19.2457 134.093 18.9476 134.306 18.5771L136.108 19.4586C135.226 21.0001 133.885 21.7666 132.084 21.7666C131.232 21.7623 130.453 21.5622 129.763 21.1704ZM134.145 16.1073C134.123 15.8348 134.025 15.5665 133.846 15.3025C133.672 15.0343 133.425 14.8171 133.114 14.6382C132.803 14.4636 132.437 14.3742 132.02 14.3742C131.487 14.3742 131.032 14.5318 130.653 14.8426C130.274 15.1535 129.997 15.5751 129.831 16.1073H134.145Z" fill="black"/>
<path d="M141.251 21.3872C140.791 21.136 140.451 20.8251 140.225 20.4547H140.089V21.4894H137.998V9.33203H140.225V12.662L140.089 13.8841H140.225C140.464 13.5094 140.809 13.1985 141.26 12.9388C141.711 12.6833 142.235 12.5598 142.823 12.5598C143.602 12.5598 144.313 12.7557 144.952 13.1475C145.591 13.5392 146.093 14.0843 146.455 14.7869C146.817 15.4895 147 16.2815 147 17.163C147 18.0572 146.821 18.8535 146.455 19.5476C146.093 20.246 145.591 20.7868 144.952 21.1786C144.313 21.5703 143.602 21.7662 142.823 21.7662C142.235 21.762 141.711 21.6385 141.251 21.3872ZM143.606 19.3858C143.968 19.1687 144.258 18.8706 144.471 18.4873C144.688 18.1041 144.794 17.6612 144.794 17.163C144.794 16.6648 144.688 16.2219 144.471 15.8387C144.253 15.4554 143.968 15.1574 143.606 14.9487C143.244 14.74 142.852 14.6336 142.435 14.6336C142.026 14.6336 141.643 14.74 141.281 14.9487C140.919 15.1574 140.63 15.4554 140.417 15.8387C140.2 16.2219 140.093 16.6648 140.093 17.163C140.093 17.6612 140.2 18.1041 140.417 18.4873C140.634 18.8706 140.919 19.1729 141.281 19.3858C141.643 19.603 142.031 19.7095 142.435 19.7095C142.852 19.7052 143.244 19.5987 143.606 19.3858Z" fill="black"/>
<path d="M157 1L157 31" stroke="#B5B5B7" stroke-opacity="0.5" stroke-width="0.5" stroke-linecap="round"/>
<rect x="167" y="3.98242" width="58.0702" height="24.0351" rx="2" fill="#F99E24" fill-opacity="0.1"/>
<path d="M183.307 13.272H184.331L186.483 19H185.491L184.979 17.536H182.667L182.147 19H181.155L183.307 13.272ZM184.675 16.704L184.067 15L183.843 14.336H183.795L183.571 15L182.963 16.704H184.675ZM188.061 13.272H189.893C190.485 13.272 191.003 13.392 191.445 13.632C191.888 13.872 192.227 14.2107 192.461 14.648C192.701 15.08 192.821 15.576 192.821 16.136C192.821 16.696 192.701 17.1947 192.461 17.632C192.227 18.064 191.888 18.4 191.445 18.64C191.003 18.88 190.485 19 189.893 19H188.061V13.272ZM189.877 18.144C190.517 18.144 191.016 17.968 191.373 17.616C191.736 17.2587 191.917 16.7653 191.917 16.136C191.917 15.512 191.736 15.0213 191.373 14.664C191.016 14.3067 190.517 14.128 189.877 14.128H188.957V18.144H189.877ZM194.643 13.272H195.859L197.507 17.616H197.555L199.203 13.272H200.419V19H199.531V15.792L199.579 14.76H199.531L197.891 19H197.171L195.531 14.76H195.483L195.531 15.792V19H194.643V13.272ZM202.529 13.272H203.425V19H202.529V13.272ZM205.532 13.272H206.596L209.156 17.44H209.204L209.156 16.336V13.272H210.044V19H209.108L206.42 14.616H206.372L206.42 15.72V19H205.532V13.272Z" fill="#F99E24"/>
</svg>
