<svg width="147" height="22" viewBox="0 0 147 22" fill="none" xmlns="http://www.w3.org/2000/svg">
<path d="M5.32998 11.5128L5.39387 1.71875C0.262639 4.65271 -1.51733 11.1892 1.41662 16.3204C2.82611 18.786 5.15541 20.5915 7.89774 21.3367L8.58332 12.9862L5.32998 11.5128Z" fill="#F99E24"/>
<path d="M16.3846 1.92285L12.0497 8.54447L17.6195 9.32372L8.12354 21.3917C13.8552 22.831 19.672 19.352 21.1113 13.6203C22.244 9.10656 20.332 4.37988 16.3846 1.92285Z" fill="#F99E24"/>
<path d="M31.0173 4.33203H33.3083V16.4937H31.0173V4.33203Z" fill="black"/>
<path d="M35.7739 7.82784H37.8647V8.9137H38.001C38.2735 8.49639 38.6397 8.16425 39.0954 7.92152C39.5553 7.6788 40.0663 7.55957 40.6326 7.55957C41.2458 7.55957 41.7781 7.70435 42.2295 7.99392C42.6809 8.28348 43.0045 8.64543 43.1961 9.08829C43.4772 8.63692 43.8647 8.26644 44.3586 7.9854C44.8526 7.70435 45.4317 7.55957 46.1003 7.55957C47.0839 7.55957 47.8334 7.86191 48.3529 8.46658C48.8681 9.07126 49.1279 9.88885 49.1279 10.9194V16.4892H46.9178V11.3281C46.9178 10.7831 46.7901 10.3658 46.5346 10.072C46.2791 9.77813 45.9257 9.6291 45.4743 9.6291C44.8952 9.6291 44.4353 9.85904 44.0903 10.3147C43.7454 10.7746 43.5708 11.375 43.5708 12.1244V16.4892H41.3438V11.3281C41.3438 10.7831 41.2117 10.3658 40.9435 10.072C40.6752 9.77813 40.3005 9.6291 39.815 9.6291C39.27 9.6291 38.8314 9.85904 38.4992 10.3147C38.1671 10.7746 37.9967 11.375 37.9967 12.1244V16.4892H35.7739V7.82784Z" fill="black"/>
<path d="M51.1802 7.82819H53.271V8.87999H53.4073C53.6457 8.50526 53.9906 8.19441 54.442 7.93465C54.8934 7.67915 55.4172 7.55566 56.0048 7.55566C56.7883 7.55566 57.4952 7.75155 58.1382 8.14331C58.7769 8.53507 59.2794 9.08013 59.6414 9.78274C60.0033 10.4854 60.1864 11.2774 60.1864 12.1589C60.1864 13.0531 60.0033 13.8494 59.6414 14.5435C59.2794 15.2419 58.7769 15.7827 58.1382 16.1744C57.4995 16.5662 56.7883 16.7621 56.0048 16.7621C55.4172 16.7621 54.8934 16.6386 54.4335 16.3873C53.9736 16.1361 53.6329 15.8252 53.4073 15.4548H53.271L53.4073 16.6769V20.1602H51.1802V7.82819ZM56.7841 14.3859C57.146 14.1688 57.4356 13.8707 57.6485 13.4874C57.8614 13.1042 57.9721 12.6613 57.9721 12.1631C57.9721 11.6649 57.8657 11.222 57.6485 10.8388C57.4313 10.4556 57.146 10.1575 56.7841 9.94882C56.4221 9.74016 56.0304 9.63371 55.613 9.63371C55.2043 9.63371 54.821 9.74016 54.4591 9.94882C54.0971 10.1575 53.8075 10.4556 53.5946 10.8388C53.3774 11.222 53.271 11.6649 53.271 12.1631C53.271 12.6613 53.3774 13.1042 53.5946 13.4874C53.8118 13.8707 54.0971 14.173 54.4591 14.3859C54.821 14.6031 55.2085 14.7096 55.613 14.7096C56.0304 14.7053 56.4221 14.5989 56.7841 14.3859Z" fill="black"/>
<path d="M62.5585 15.7954C62.0134 15.1524 61.7451 14.2496 61.7451 13.0956V7.82812H63.9722V12.8231C63.9722 13.4107 64.1127 13.8749 64.398 14.207C64.6791 14.5392 65.0538 14.7095 65.518 14.7095C66.1524 14.7095 66.6549 14.4753 67.0296 14.0111C67.4044 13.547 67.5917 12.9594 67.5917 12.244V7.82812H69.8146V16.4895H67.7237V15.4036H67.5875C67.3277 15.8209 66.9615 16.1531 66.4931 16.3958C66.0247 16.6385 65.5052 16.762 64.9388 16.762C63.8955 16.762 63.1035 16.4384 62.5585 15.7954Z" fill="black"/>
<path d="M71.9861 4.33203H74.2132V16.4937H71.9861V4.33203Z" fill="black"/>
<path d="M77.0537 16.1191C76.4022 15.689 75.9465 15.1269 75.6868 14.437L77.6754 13.5726C77.8585 13.9814 78.114 14.288 78.4504 14.4967C78.7825 14.7053 79.17 14.8118 79.6129 14.8118C80.0217 14.8118 80.3624 14.7479 80.6306 14.6159C80.9032 14.4839 81.0394 14.271 81.0394 13.9772C81.0394 13.6961 80.9159 13.4832 80.6647 13.3384C80.4135 13.1979 80.043 13.0701 79.5448 12.9552L78.527 12.7337C77.8244 12.5634 77.241 12.2568 76.7769 11.8097C76.3127 11.3626 76.0828 10.8047 76.0828 10.1362C76.0828 9.63796 76.2318 9.19084 76.5342 8.79482C76.8322 8.3988 77.241 8.09221 77.7563 7.87929C78.2715 7.66212 78.8422 7.55566 79.4639 7.55566C81.2523 7.55566 82.4489 8.18163 83.0493 9.44208L81.1459 10.2724C80.8052 9.66351 80.2644 9.35692 79.515 9.35692C79.1317 9.35692 78.8251 9.42931 78.5994 9.56983C78.3737 9.71035 78.2588 9.8892 78.2588 10.1064C78.2588 10.5152 78.642 10.8218 79.4128 11.0219L80.686 11.3285C81.5462 11.5414 82.1934 11.8693 82.632 12.3122C83.0664 12.755 83.2835 13.2958 83.2835 13.9431C83.2835 14.5009 83.1217 14.9864 82.7981 15.4122C82.4745 15.838 82.0316 16.1702 81.4738 16.4044C80.9117 16.6428 80.2942 16.7621 79.6129 16.7621C78.5568 16.7621 77.7052 16.5449 77.0537 16.1191Z" fill="black"/>
<path d="M85.0464 6.45207C84.7654 6.17102 84.6206 5.83036 84.6206 5.43434C84.6206 5.03832 84.7611 4.70191 85.0464 4.42512C85.3275 4.14834 85.6681 4.00781 86.0642 4.00781C86.4602 4.00781 86.7966 4.14408 87.0734 4.42512C87.3502 4.70191 87.4907 5.03832 87.4907 5.43434C87.4907 5.83036 87.3502 6.17102 87.0734 6.45207C86.7966 6.73311 86.4602 6.87789 86.0642 6.87789C85.6681 6.87789 85.3275 6.73737 85.0464 6.45207ZM84.9442 7.82749H87.1671V16.4888H84.9442V7.82749Z" fill="black"/>
<path d="M88.5254 7.82812H91.0548L93.2436 13.4661H93.3798L95.6027 7.82812H98.098L94.3933 16.4895H92.1833L88.5254 7.82812Z" fill="black"/>
<path d="M100.789 16.1704C100.1 15.7744 99.5588 15.2251 99.167 14.531C98.7752 13.8369 98.5793 13.0534 98.5793 12.1804C98.5793 11.3543 98.771 10.5878 99.1585 9.88096C99.5417 9.17408 100.074 8.61199 100.755 8.19042C101.432 7.77311 102.195 7.56445 103.029 7.56445C103.923 7.56445 104.694 7.75608 105.337 8.13932C105.985 8.52257 106.474 9.05059 106.806 9.71914C107.138 10.3877 107.309 11.1286 107.309 11.942C107.309 12.2017 107.292 12.453 107.258 12.6914H100.755C100.87 13.3813 101.143 13.905 101.577 14.2627C102.012 14.6204 102.535 14.7993 103.148 14.7993C103.659 14.7993 104.098 14.6886 104.464 14.4671C104.83 14.2457 105.124 13.9476 105.337 13.5771L107.138 14.4586C106.257 16.0001 104.916 16.7666 103.114 16.7666C102.254 16.7623 101.479 16.5622 100.789 16.1704ZM105.171 11.1073C105.15 10.8348 105.052 10.5665 104.873 10.3025C104.699 10.0343 104.452 9.81708 104.141 9.63824C103.83 9.46365 103.464 9.37422 103.046 9.37422C102.514 9.37422 102.058 9.53178 101.679 9.84263C101.3 10.1535 101.024 10.5751 100.858 11.1073H105.171Z" fill="black"/>
<path d="M111.524 4.33203H114.071L115.736 11.1581L115.94 12.4313H116.077L116.349 11.1581L118.487 4.33203H120.744L122.834 11.1581L123.107 12.3972H123.243L123.448 11.1581L125.096 4.33203H127.642L124.499 16.4937H122.038L119.964 9.15666L119.692 7.84937H119.556L119.283 9.15666L117.107 16.4937H114.748L111.524 4.33203Z" fill="black"/>
<path d="M129.763 16.1704C129.073 15.7744 128.532 15.2251 128.14 14.531C127.749 13.8369 127.553 13.0534 127.553 12.1804C127.553 11.3543 127.744 10.5878 128.132 9.88096C128.515 9.17408 129.047 8.61199 129.729 8.19042C130.406 7.77311 131.168 7.56445 132.003 7.56445C132.897 7.56445 133.668 7.75608 134.311 8.13932C134.958 8.52257 135.448 9.05059 135.78 9.71914C136.112 10.3877 136.282 11.1286 136.282 11.942C136.282 12.2017 136.265 12.453 136.231 12.6914H129.724C129.839 13.3813 130.112 13.905 130.546 14.2627C130.981 14.6204 131.504 14.7993 132.118 14.7993C132.629 14.7993 133.067 14.6886 133.433 14.4671C133.8 14.2457 134.093 13.9476 134.306 13.5771L136.108 14.4586C135.226 16.0001 133.885 16.7666 132.084 16.7666C131.232 16.7623 130.453 16.5622 129.763 16.1704ZM134.145 11.1073C134.123 10.8348 134.025 10.5665 133.846 10.3025C133.672 10.0343 133.425 9.81708 133.114 9.63824C132.803 9.46365 132.437 9.37422 132.02 9.37422C131.487 9.37422 131.032 9.53178 130.653 9.84263C130.274 10.1535 129.997 10.5751 129.831 11.1073H134.145Z" fill="black"/>
<path d="M141.251 16.3872C140.791 16.136 140.451 15.8251 140.225 15.4547H140.089V16.4894H137.998V4.33203H140.225V7.66201L140.089 8.88413H140.225C140.464 8.5094 140.809 8.19855 141.26 7.93879C141.711 7.6833 142.235 7.55981 142.823 7.55981C143.602 7.55981 144.313 7.75569 144.952 8.14745C145.591 8.53921 146.093 9.08427 146.455 9.78689C146.817 10.4895 147 11.2815 147 12.163C147 13.0572 146.821 13.8535 146.455 14.5476C146.093 15.246 145.591 15.7868 144.952 16.1786C144.313 16.5703 143.602 16.7662 142.823 16.7662C142.235 16.762 141.711 16.6385 141.251 16.3872ZM143.606 14.3858C143.968 14.1687 144.258 13.8706 144.471 13.4873C144.688 13.1041 144.794 12.6612 144.794 12.163C144.794 11.6648 144.688 11.2219 144.471 10.8387C144.253 10.4554 143.968 10.1574 143.606 9.9487C143.244 9.74005 142.852 9.63359 142.435 9.63359C142.026 9.63359 141.643 9.74005 141.281 9.9487C140.919 10.1574 140.63 10.4554 140.417 10.8387C140.2 11.2219 140.093 11.6648 140.093 12.163C140.093 12.6612 140.2 13.1041 140.417 13.4873C140.634 13.8706 140.919 14.1729 141.281 14.3858C141.643 14.603 142.031 14.7095 142.435 14.7095C142.852 14.7052 143.244 14.5987 143.606 14.3858Z" fill="black"/>
</svg>
